%TF.GenerationSoftware,KiCad,Pcbnew,10.0.5-1.fc44*%
%TF.CreationDate,2026-09-07T18:44:43-03:00*%
%TF.ProjectId,TDAC_TP1_PCB_DESIGN,54444143-5f54-4503-915f-5043425f4445,rev?*%
%TF.SameCoordinates,Original*%
%TF.FileFunction,Copper,L2,Bot*%
%TF.FilePolarity,Positive*%
%FSLAX46Y46*%
G04 Gerber Fmt 4.6, Leading zero omitted, Abs format (unit mm)*
G04 Created by KiCad (PCBNEW 10.0.5-1.fc44) date 2026-09-07 18:44:43*
%MOMM*%
%LPD*%
G01*
G04 APERTURE LIST*
G04 Aperture macros list*
%AMRoundRect*
0 Rectangle with rounded corners*
0 $1 Rounding radius*
0 $2 $3 $4 $5 $6 $7 $8 $9 X,Y pos of 4 corners*
0 Add a 4 corners polygon primitive as box body*
4,1,4,$2,$3,$4,$5,$6,$7,$8,$9,$2,$3,0*
0 Add four circle primitives for the rounded corners*
1,1,$1+$1,$2,$3*
1,1,$1+$1,$4,$5*
1,1,$1+$1,$6,$7*
1,1,$1+$1,$8,$9*
0 Add four rect primitives between the rounded corners*
20,1,$1+$1,$2,$3,$4,$5,0*
20,1,$1+$1,$4,$5,$6,$7,0*
20,1,$1+$1,$6,$7,$8,$9,0*
20,1,$1+$1,$8,$9,$2,$3,0*%
G04 Aperture macros list end*
%TA.AperFunction,EtchedComponent*%
%ADD10C,0.000000*%
%TD*%
%TA.AperFunction,ComponentPad*%
%ADD11R,1.700000X1.700000*%
%TD*%
%TA.AperFunction,ComponentPad*%
%ADD12O,1.700000X1.700000*%
%TD*%
%TA.AperFunction,ComponentPad*%
%ADD13C,1.800000*%
%TD*%
%TA.AperFunction,ComponentPad*%
%ADD14RoundRect,0.250001X1.149999X-1.149999X1.149999X1.149999X-1.149999X1.149999X-1.149999X-1.149999X0*%
%TD*%
%TA.AperFunction,ComponentPad*%
%ADD15C,2.800000*%
%TD*%
%TA.AperFunction,ComponentPad*%
%ADD16R,3.000000X3.000000*%
%TD*%
%TA.AperFunction,ComponentPad*%
%ADD17C,3.000000*%
%TD*%
%TA.AperFunction,ComponentPad*%
%ADD18C,1.530000*%
%TD*%
%TA.AperFunction,SMDPad,CuDef*%
%ADD19C,2.000000*%
%TD*%
%TA.AperFunction,Conductor*%
%ADD20C,1.000000*%
%TD*%
%TA.AperFunction,Conductor*%
%ADD21C,2.000000*%
%TD*%
G04 APERTURE END LIST*
D10*
%TA.AperFunction,EtchedComponent*%
%TO.C,NT1*%
G36*
X154500000Y-77500000D02*
G01*
X150500000Y-77500000D01*
X150500000Y-75500000D01*
X154500000Y-75500000D01*
X154500000Y-77500000D01*
G37*
%TD.AperFunction*%
%TD*%
D11*
%TO.P,J1,1,Pin_1_1*%
%TO.N,unconnected-(J1-Pin_1-Pad1)*%
X127940000Y-97460000D03*
D12*
%TO.P,J1,2,Pin_2_2*%
%TO.N,/IOREF*%
X130480000Y-97460000D03*
%TO.P,J1,3,Pin_3_3*%
%TO.N,/~{RESET}*%
X133020000Y-97460000D03*
%TO.P,J1,4,Pin_4_4*%
%TO.N,+3V3*%
X135560000Y-97460000D03*
%TO.P,J1,5,Pin_5_5*%
%TO.N,+5V*%
X138100000Y-97460000D03*
%TO.P,J1,6,Pin_6_6*%
%TO.N,GND*%
X140640000Y-97460000D03*
%TO.P,J1,7,Pin_7_7*%
X143180000Y-97460000D03*
%TO.P,J1,8,Pin_8_8*%
%TO.N,VCC*%
X145720000Y-97460000D03*
%TD*%
D11*
%TO.P,J3,1,Pin_1_1*%
%TO.N,/A0*%
X150800000Y-97460000D03*
D12*
%TO.P,J3,2,Pin_2_2*%
%TO.N,/A1*%
X153340000Y-97460000D03*
%TO.P,J3,3,Pin_3_3*%
%TO.N,/A2*%
X155880000Y-97460000D03*
%TO.P,J3,4,Pin_4_4*%
%TO.N,/A3*%
X158420000Y-97460000D03*
%TO.P,J3,5,Pin_5_5*%
%TO.N,/SDA{slash}A4*%
X160960000Y-97460000D03*
%TO.P,J3,6,Pin_6_6*%
%TO.N,/SCL{slash}A5*%
X163500000Y-97460000D03*
%TD*%
D11*
%TO.P,J2,1,Pin_1_1*%
%TO.N,/SCL{slash}A5*%
X118796000Y-49200000D03*
D12*
%TO.P,J2,2,Pin_2_2*%
%TO.N,/SDA{slash}A4*%
X121336000Y-49200000D03*
%TO.P,J2,3,Pin_3_3*%
%TO.N,/AREF*%
X123876000Y-49200000D03*
%TO.P,J2,4,Pin_4_4*%
%TO.N,GND*%
X126416000Y-49200000D03*
%TO.P,J2,5,Pin_5_5*%
%TO.N,/13*%
X128956000Y-49200000D03*
%TO.P,J2,6,Pin_6_6*%
%TO.N,/12*%
X131496000Y-49200000D03*
%TO.P,J2,7,Pin_7_7*%
%TO.N,/\u002A11*%
X134036000Y-49200000D03*
%TO.P,J2,8,Pin_8_8*%
%TO.N,/\u002A10*%
X136576000Y-49200000D03*
%TO.P,J2,9,Pin_9_9*%
%TO.N,/\u002A9*%
X139116000Y-49200000D03*
%TO.P,J2,10,Pin_10_10*%
%TO.N,/8*%
X141656000Y-49200000D03*
%TD*%
D11*
%TO.P,J4,1,Pin_1_1*%
%TO.N,/7*%
X145720000Y-49200000D03*
D12*
%TO.P,J4,2,Pin_2_2*%
%TO.N,/\u002A6*%
X148260000Y-49200000D03*
%TO.P,J4,3,Pin_3_3*%
%TO.N,/\u002A5*%
X150800000Y-49200000D03*
%TO.P,J4,4,Pin_4_4*%
%TO.N,/4*%
X153340000Y-49200000D03*
%TO.P,J4,5,Pin_5_5*%
%TO.N,/\u002A3*%
X155880000Y-49200000D03*
%TO.P,J4,6,Pin_6_6*%
%TO.N,/2*%
X158420000Y-49200000D03*
%TO.P,J4,7,Pin_7_7*%
%TO.N,/TX{slash}1*%
X160960000Y-49200000D03*
%TO.P,J4,8,Pin_8_8*%
%TO.N,/RX{slash}0*%
X163500000Y-49200000D03*
%TD*%
D13*
%TO.P,U2,1,vcc_1*%
%TO.N,+5V*%
X113760000Y-56000000D03*
%TO.P,U2,2,gnd_2*%
%TO.N,GND*%
X116300000Y-56000000D03*
%TO.P,U2,3,scl_3*%
%TO.N,/SCL{slash}A5*%
X118840000Y-56000000D03*
%TO.P,U2,4,sda_4*%
%TO.N,/SDA{slash}A4*%
X121380000Y-56000000D03*
%TO.P,U2,5,xda_5*%
%TO.N,unconnected-(U2-xda-Pad5)*%
X126460000Y-56000000D03*
%TO.P,U2,6,xcl_6*%
%TO.N,unconnected-(U2-xcl-Pad6)*%
X123920000Y-56000000D03*
%TO.P,U2,7,add_7*%
%TO.N,unconnected-(U2-add-Pad7)*%
X129000000Y-56000000D03*
%TO.P,U2,8,int_8*%
%TO.N,unconnected-(U2-int-Pad8)*%
X131540000Y-56000000D03*
%TD*%
D14*
%TO.P,Servo_Terminal_01,1,Pin_1_1*%
%TO.N,+12V*%
X164500000Y-87000000D03*
D15*
%TO.P,Servo_Terminal_01,2,Pin_2_2*%
%TO.N,/\u002A5*%
X164500000Y-82000000D03*
%TO.P,Servo_Terminal_01,3,Pin_3_3*%
%TO.N,GNDPWR*%
X164500000Y-77000000D03*
%TD*%
D16*
%TO.P,R1,1,1_1*%
%TO.N,+5V*%
X106000000Y-72500000D03*
D17*
%TO.P,R1,2,2_2*%
%TO.N,/A0*%
X106000000Y-77500000D03*
%TO.P,R1,3,3_3*%
%TO.N,GND*%
X106000000Y-82500000D03*
%TD*%
D18*
%TO.P,U1,1,VCC_1*%
%TO.N,+5V*%
X143000000Y-55000000D03*
%TO.P,U1,2,TRIG_2*%
%TO.N,/7*%
X145540000Y-55000000D03*
%TO.P,U1,3,ECHO_3*%
%TO.N,/\u002A6*%
X148080000Y-55000000D03*
%TO.P,U1,4,GND_4*%
%TO.N,GND*%
X150620000Y-55000000D03*
%TD*%
D19*
%TO.P,NT1,1,1_1*%
%TO.N,GNDPWR*%
X154500000Y-76500000D03*
%TO.P,NT1,2,2_2*%
%TO.N,GND*%
X150500000Y-76500000D03*
%TD*%
%TO.N,/\u002A5*%
D20*
X150800000Y-49200000D02*
X153100000Y-51500000D01*
X153100000Y-51500000D02*
X166000000Y-51500000D01*
X166000000Y-51500000D02*
X168425000Y-53925000D01*
X168425000Y-53925000D02*
X168425000Y-78075000D01*
X168425000Y-78075000D02*
X164500000Y-82000000D01*
%TO.N,+5V*%
X138000000Y-97000000D02*
X138000000Y-97500000D01*
X100575000Y-91075000D02*
X104000000Y-94500000D01*
X135500000Y-94500000D02*
X138000000Y-97000000D01*
X104000000Y-94500000D02*
X135500000Y-94500000D01*
%TO.N,/A0*%
X106000000Y-77500000D02*
X119500000Y-91000000D01*
X119500000Y-91000000D02*
X145000000Y-91000000D01*
X145000000Y-91000000D02*
X150800000Y-96800000D01*
X150800000Y-96800000D02*
X150800000Y-97460000D01*
%TO.N,+5V*%
X100575000Y-77925000D02*
X106000000Y-72500000D01*
X100575000Y-91075000D02*
X100575000Y-77925000D01*
X143000000Y-55000000D02*
X141000000Y-60000000D01*
X141000000Y-60000000D02*
X116000000Y-60000000D01*
X106000000Y-72500000D02*
X106000000Y-63760000D01*
X116000000Y-60000000D02*
X113760000Y-56000000D01*
X106000000Y-63760000D02*
X113760000Y-56000000D01*
%TO.N,GND*%
D21*
X143180000Y-97100862D02*
X143180000Y-97460000D01*
%TO.N,/SDA{slash}A4*%
D20*
X121336000Y-49200000D02*
X121336000Y-55956000D01*
X121336000Y-55956000D02*
X121380000Y-56000000D01*
%TO.N,/SCL{slash}A5*%
X118796000Y-55956000D02*
X118840000Y-56000000D01*
X118796000Y-49200000D02*
X118796000Y-55956000D01*
%TO.N,/7*%
X145720000Y-54820000D02*
X145540000Y-55000000D01*
X145720000Y-49200000D02*
X145720000Y-54820000D01*
%TO.N,/\u002A6*%
X148260000Y-49200000D02*
X148260000Y-54820000D01*
X148260000Y-54820000D02*
X148080000Y-55000000D01*
%TD*%
%TA.AperFunction,Conductor*%
%TO.N,GNDPWR*%
G36*
X165548006Y-52513521D02*
G01*
X165573250Y-52520934D01*
X165625996Y-52552230D01*
X167367573Y-54293807D01*
X167388723Y-54322059D01*
X167401331Y-54345148D01*
X167416500Y-54404577D01*
X167416500Y-77588073D01*
X167411476Y-77623010D01*
X167404064Y-77648251D01*
X167372769Y-77700995D01*
X164996394Y-80077369D01*
X164968140Y-80098520D01*
X164949720Y-80108578D01*
X164891417Y-80123741D01*
X164882826Y-80123818D01*
X164880054Y-80123843D01*
X164862747Y-80122788D01*
X164789861Y-80113192D01*
X164789861Y-80113191D01*
X164626968Y-80091747D01*
X164625287Y-80091500D01*
X164625096Y-80091500D01*
X164625090Y-80091500D01*
X164374910Y-80091500D01*
X164374904Y-80091500D01*
X164374902Y-80091500D01*
X164368782Y-80092253D01*
X164367876Y-80092425D01*
X164126902Y-80124150D01*
X164126870Y-80124154D01*
X164125050Y-80124584D01*
X164123282Y-80125115D01*
X164075802Y-80137838D01*
X164075800Y-80137839D01*
X163885217Y-80188905D01*
X163885207Y-80188908D01*
X163654083Y-80284643D01*
X163654059Y-80284656D01*
X163437419Y-80409733D01*
X163238946Y-80562026D01*
X163238931Y-80562040D01*
X163238923Y-80562047D01*
X163062047Y-80738923D01*
X163062040Y-80738931D01*
X163062026Y-80738946D01*
X162909733Y-80937419D01*
X162784656Y-81154059D01*
X162784643Y-81154083D01*
X162688908Y-81385207D01*
X162688905Y-81385218D01*
X162653806Y-81516210D01*
X162625236Y-81622837D01*
X162625233Y-81622849D01*
X162624159Y-81626855D01*
X162624154Y-81626877D01*
X162624151Y-81626890D01*
X162591503Y-81874883D01*
X162591500Y-81874908D01*
X162591500Y-82125090D01*
X162591503Y-82125115D01*
X162624153Y-82373120D01*
X162624267Y-82373812D01*
X162625002Y-82376290D01*
X162688906Y-82614784D01*
X162688908Y-82614791D01*
X162784643Y-82845915D01*
X162784656Y-82845939D01*
X162909733Y-83062579D01*
X163062026Y-83261052D01*
X163062030Y-83261057D01*
X163062033Y-83261060D01*
X163062039Y-83261067D01*
X163238932Y-83437960D01*
X163238939Y-83437966D01*
X163238942Y-83437968D01*
X163238946Y-83437972D01*
X163437419Y-83590265D01*
X163654059Y-83715342D01*
X163654069Y-83715347D01*
X163654077Y-83715352D01*
X163654087Y-83715357D01*
X163782152Y-83768403D01*
X163885216Y-83811094D01*
X164126871Y-83875845D01*
X164374910Y-83908500D01*
X164374917Y-83908500D01*
X164625083Y-83908500D01*
X164625090Y-83908500D01*
X164873129Y-83875845D01*
X165114784Y-83811094D01*
X165345919Y-83715354D01*
X165562581Y-83590265D01*
X165761062Y-83437965D01*
X165937965Y-83261062D01*
X166090265Y-83062581D01*
X166215354Y-82845919D01*
X166311094Y-82614784D01*
X166375845Y-82373129D01*
X166408500Y-82125090D01*
X166408500Y-81874910D01*
X166377840Y-81642031D01*
X166377273Y-81614810D01*
X166379545Y-81589423D01*
X166399337Y-81532513D01*
X166403027Y-81526881D01*
X166419046Y-81507185D01*
X168700215Y-79226017D01*
X168728464Y-79204870D01*
X168738393Y-79199448D01*
X168806665Y-79184597D01*
X168872129Y-79209014D01*
X168914001Y-79264947D01*
X168916682Y-79272135D01*
X168924500Y-79315469D01*
X168924500Y-99782670D01*
X168919475Y-99817614D01*
X168915070Y-99832612D01*
X168877327Y-99891355D01*
X168875958Y-99892542D01*
X168821097Y-99920018D01*
X168813539Y-99921663D01*
X168787168Y-99924500D01*
X153141830Y-99924500D01*
X153106889Y-99919475D01*
X153091890Y-99915070D01*
X153033144Y-99877327D01*
X153031957Y-99875958D01*
X153004477Y-99821083D01*
X153002832Y-99813521D01*
X153000000Y-99787168D01*
X153000000Y-98944597D01*
X153005022Y-98909664D01*
X153008933Y-98896345D01*
X153046706Y-98837568D01*
X153110258Y-98808543D01*
X153110267Y-98808542D01*
X153123151Y-98806690D01*
X153160191Y-98806954D01*
X153233084Y-98818500D01*
X153233085Y-98818500D01*
X153446915Y-98818500D01*
X153446916Y-98818500D01*
X153658116Y-98785049D01*
X153861483Y-98718972D01*
X154052009Y-98621894D01*
X154225004Y-98496206D01*
X154376206Y-98345004D01*
X154497989Y-98177382D01*
X154515098Y-98158334D01*
X154527782Y-98146857D01*
X154590696Y-98116476D01*
X154660049Y-98124930D01*
X154663114Y-98126252D01*
X154707761Y-98158936D01*
X154709776Y-98161262D01*
X154716264Y-98169702D01*
X154716336Y-98169649D01*
X154717536Y-98171248D01*
X154718650Y-98172758D01*
X154843794Y-98345004D01*
X154994996Y-98496206D01*
X155167991Y-98621894D01*
X155261438Y-98669507D01*
X155358516Y-98718972D01*
X155358519Y-98718973D01*
X155460200Y-98752010D01*
X155561884Y-98785049D01*
X155773084Y-98818500D01*
X155773085Y-98818500D01*
X155986915Y-98818500D01*
X155986916Y-98818500D01*
X156198116Y-98785049D01*
X156401483Y-98718972D01*
X156592009Y-98621894D01*
X156765004Y-98496206D01*
X156916206Y-98345004D01*
X157037989Y-98177382D01*
X157055098Y-98158334D01*
X157067782Y-98146857D01*
X157130696Y-98116476D01*
X157200049Y-98124930D01*
X157203114Y-98126252D01*
X157247761Y-98158936D01*
X157249776Y-98161262D01*
X157256264Y-98169702D01*
X157256336Y-98169649D01*
X157257536Y-98171248D01*
X157258650Y-98172758D01*
X157383794Y-98345004D01*
X157534996Y-98496206D01*
X157707991Y-98621894D01*
X157801438Y-98669507D01*
X157898516Y-98718972D01*
X157898519Y-98718973D01*
X158000200Y-98752010D01*
X158101884Y-98785049D01*
X158313084Y-98818500D01*
X158313085Y-98818500D01*
X158526915Y-98818500D01*
X158526916Y-98818500D01*
X158738116Y-98785049D01*
X158941483Y-98718972D01*
X159132009Y-98621894D01*
X159305004Y-98496206D01*
X159456206Y-98345004D01*
X159577989Y-98177382D01*
X159595098Y-98158334D01*
X159607782Y-98146857D01*
X159670696Y-98116476D01*
X159740049Y-98124930D01*
X159743114Y-98126252D01*
X159787761Y-98158936D01*
X159789776Y-98161262D01*
X159796264Y-98169702D01*
X159796336Y-98169649D01*
X159797536Y-98171248D01*
X159798650Y-98172758D01*
X159923794Y-98345004D01*
X160074996Y-98496206D01*
X160247991Y-98621894D01*
X160341438Y-98669507D01*
X160438516Y-98718972D01*
X160438519Y-98718973D01*
X160540200Y-98752010D01*
X160641884Y-98785049D01*
X160853084Y-98818500D01*
X160853085Y-98818500D01*
X161066915Y-98818500D01*
X161066916Y-98818500D01*
X161278116Y-98785049D01*
X161481483Y-98718972D01*
X161672009Y-98621894D01*
X161845004Y-98496206D01*
X161996206Y-98345004D01*
X162117989Y-98177382D01*
X162135098Y-98158334D01*
X162147782Y-98146857D01*
X162210696Y-98116476D01*
X162280049Y-98124930D01*
X162283114Y-98126252D01*
X162327761Y-98158936D01*
X162329776Y-98161262D01*
X162336264Y-98169702D01*
X162336336Y-98169649D01*
X162337536Y-98171248D01*
X162338650Y-98172758D01*
X162463794Y-98345004D01*
X162614996Y-98496206D01*
X162787991Y-98621894D01*
X162881438Y-98669507D01*
X162978516Y-98718972D01*
X162978519Y-98718973D01*
X163080200Y-98752010D01*
X163181884Y-98785049D01*
X163393084Y-98818500D01*
X163393085Y-98818500D01*
X163606915Y-98818500D01*
X163606916Y-98818500D01*
X163818116Y-98785049D01*
X164021483Y-98718972D01*
X164212009Y-98621894D01*
X164385004Y-98496206D01*
X164536206Y-98345004D01*
X164661894Y-98172009D01*
X164758972Y-97981483D01*
X164825049Y-97778116D01*
X164858500Y-97566916D01*
X164858500Y-97353084D01*
X164825049Y-97141884D01*
X164760480Y-96943158D01*
X164759416Y-96939386D01*
X164661892Y-96747988D01*
X164536211Y-96575002D01*
X164536207Y-96574997D01*
X164385006Y-96423796D01*
X164385004Y-96423794D01*
X164212009Y-96298106D01*
X164021483Y-96201027D01*
X164021480Y-96201026D01*
X164021479Y-96201025D01*
X164021476Y-96201024D01*
X164021456Y-96201017D01*
X163818119Y-96134951D01*
X163818120Y-96134951D01*
X163696602Y-96115705D01*
X163678993Y-96112916D01*
X163606916Y-96101500D01*
X163606915Y-96101500D01*
X163393080Y-96101500D01*
X163336764Y-96110420D01*
X163322684Y-96112650D01*
X163181878Y-96134951D01*
X162978542Y-96201017D01*
X162978523Y-96201024D01*
X162978522Y-96201024D01*
X162787989Y-96298106D01*
X162689288Y-96369817D01*
X162614993Y-96423796D01*
X162614991Y-96423798D01*
X162614990Y-96423798D01*
X162463798Y-96574990D01*
X162463798Y-96574991D01*
X162463796Y-96574993D01*
X162342007Y-96742620D01*
X162324879Y-96761687D01*
X162312211Y-96773147D01*
X162249290Y-96803524D01*
X162179941Y-96795063D01*
X162176874Y-96793741D01*
X162132249Y-96761078D01*
X162130956Y-96759586D01*
X162126575Y-96753601D01*
X162126416Y-96753728D01*
X162123393Y-96749893D01*
X162120483Y-96746050D01*
X161996206Y-96574996D01*
X161845004Y-96423794D01*
X161672009Y-96298106D01*
X161481483Y-96201027D01*
X161481480Y-96201026D01*
X161481479Y-96201025D01*
X161481476Y-96201024D01*
X161481456Y-96201017D01*
X161278119Y-96134951D01*
X161278120Y-96134951D01*
X161156602Y-96115705D01*
X161138993Y-96112916D01*
X161066916Y-96101500D01*
X161066915Y-96101500D01*
X160853080Y-96101500D01*
X160796764Y-96110420D01*
X160782684Y-96112650D01*
X160641878Y-96134951D01*
X160438542Y-96201017D01*
X160438523Y-96201024D01*
X160438522Y-96201024D01*
X160247989Y-96298106D01*
X160149288Y-96369817D01*
X160074993Y-96423796D01*
X160074991Y-96423798D01*
X160074990Y-96423798D01*
X159923798Y-96574990D01*
X159923798Y-96574991D01*
X159923796Y-96574993D01*
X159802007Y-96742620D01*
X159784879Y-96761687D01*
X159772211Y-96773147D01*
X159709290Y-96803524D01*
X159639941Y-96795063D01*
X159636874Y-96793741D01*
X159592249Y-96761078D01*
X159590956Y-96759586D01*
X159586575Y-96753601D01*
X159586416Y-96753728D01*
X159583393Y-96749893D01*
X159580483Y-96746050D01*
X159456206Y-96574996D01*
X159305004Y-96423794D01*
X159132009Y-96298106D01*
X158941483Y-96201027D01*
X158941480Y-96201026D01*
X158941479Y-96201025D01*
X158941476Y-96201024D01*
X158941456Y-96201017D01*
X158738119Y-96134951D01*
X158738120Y-96134951D01*
X158616602Y-96115705D01*
X158598993Y-96112916D01*
X158526916Y-96101500D01*
X158526915Y-96101500D01*
X158313080Y-96101500D01*
X158256764Y-96110420D01*
X158242684Y-96112650D01*
X158101878Y-96134951D01*
X157898542Y-96201017D01*
X157898523Y-96201024D01*
X157898522Y-96201024D01*
X157707989Y-96298106D01*
X157609288Y-96369817D01*
X157534993Y-96423796D01*
X157534991Y-96423798D01*
X157534990Y-96423798D01*
X157383798Y-96574990D01*
X157383798Y-96574991D01*
X157383796Y-96574993D01*
X157262007Y-96742620D01*
X157244879Y-96761687D01*
X157232211Y-96773147D01*
X157169290Y-96803524D01*
X157099941Y-96795063D01*
X157096874Y-96793741D01*
X157052249Y-96761078D01*
X157050956Y-96759586D01*
X157046575Y-96753601D01*
X157046416Y-96753728D01*
X157043393Y-96749893D01*
X157040483Y-96746050D01*
X156916206Y-96574996D01*
X156765004Y-96423794D01*
X156592009Y-96298106D01*
X156401483Y-96201027D01*
X156401480Y-96201026D01*
X156401479Y-96201025D01*
X156401476Y-96201024D01*
X156401456Y-96201017D01*
X156198119Y-96134951D01*
X156198120Y-96134951D01*
X156076602Y-96115705D01*
X156058993Y-96112916D01*
X155986916Y-96101500D01*
X155986915Y-96101500D01*
X155773080Y-96101500D01*
X155716764Y-96110420D01*
X155702684Y-96112650D01*
X155561878Y-96134951D01*
X155358542Y-96201017D01*
X155358523Y-96201024D01*
X155358522Y-96201024D01*
X155167989Y-96298106D01*
X155069288Y-96369817D01*
X154994993Y-96423796D01*
X154994991Y-96423798D01*
X154994990Y-96423798D01*
X154843798Y-96574990D01*
X154843798Y-96574991D01*
X154843796Y-96574993D01*
X154722007Y-96742620D01*
X154704879Y-96761687D01*
X154692211Y-96773147D01*
X154629290Y-96803524D01*
X154559941Y-96795063D01*
X154556874Y-96793741D01*
X154512249Y-96761078D01*
X154510956Y-96759586D01*
X154506575Y-96753601D01*
X154506416Y-96753728D01*
X154503393Y-96749893D01*
X154500483Y-96746050D01*
X154376206Y-96574996D01*
X154225004Y-96423794D01*
X154052009Y-96298106D01*
X153861483Y-96201027D01*
X153861480Y-96201026D01*
X153861479Y-96201025D01*
X153861476Y-96201024D01*
X153861456Y-96201017D01*
X153658119Y-96134951D01*
X153658120Y-96134951D01*
X153536602Y-96115705D01*
X153518993Y-96112916D01*
X153446916Y-96101500D01*
X153446915Y-96101500D01*
X153233089Y-96101500D01*
X153233084Y-96101500D01*
X153180763Y-96109786D01*
X153161005Y-96112916D01*
X153125724Y-96113420D01*
X153111959Y-96111642D01*
X153047994Y-96083532D01*
X153009382Y-96025305D01*
X153005531Y-96012850D01*
X153000000Y-95976230D01*
X153000000Y-85799440D01*
X162591500Y-85799440D01*
X162591500Y-88200558D01*
X162602113Y-88304429D01*
X162602113Y-88304431D01*
X162657844Y-88472621D01*
X162657881Y-88472733D01*
X162657883Y-88472738D01*
X162728520Y-88587256D01*
X162750967Y-88623647D01*
X162750970Y-88623651D01*
X162750972Y-88623653D01*
X162750974Y-88623656D01*
X162876342Y-88749024D01*
X162876345Y-88749026D01*
X162876348Y-88749029D01*
X162876352Y-88749032D01*
X163027261Y-88842115D01*
X163027264Y-88842116D01*
X163195571Y-88897886D01*
X163195572Y-88897886D01*
X163195575Y-88897887D01*
X163195577Y-88897887D01*
X163195787Y-88897957D01*
X163196100Y-88898061D01*
X163198252Y-88898344D01*
X163201845Y-88898527D01*
X163299456Y-88908500D01*
X163299461Y-88908500D01*
X165700539Y-88908500D01*
X165700544Y-88908500D01*
X165804425Y-88897887D01*
X165972738Y-88842115D01*
X166123651Y-88749030D01*
X166249030Y-88623651D01*
X166342115Y-88472738D01*
X166397887Y-88304425D01*
X166408500Y-88200544D01*
X166408500Y-85799456D01*
X166397887Y-85695575D01*
X166342959Y-85529810D01*
X166342236Y-85527456D01*
X166294976Y-85450839D01*
X166249032Y-85376352D01*
X166249029Y-85376348D01*
X166249026Y-85376345D01*
X166249024Y-85376342D01*
X166123656Y-85250974D01*
X166123653Y-85250972D01*
X166123651Y-85250970D01*
X166123647Y-85250967D01*
X166087256Y-85228520D01*
X165972738Y-85157883D01*
X165972734Y-85157882D01*
X165804430Y-85102113D01*
X165700558Y-85091500D01*
X165700551Y-85091500D01*
X165700544Y-85091500D01*
X163299456Y-85091500D01*
X163299448Y-85091500D01*
X163299440Y-85091500D01*
X163195569Y-85102113D01*
X163195567Y-85102113D01*
X163027264Y-85157882D01*
X163027260Y-85157883D01*
X162876358Y-85250963D01*
X162876345Y-85250972D01*
X162876342Y-85250974D01*
X162750974Y-85376342D01*
X162750972Y-85376345D01*
X162750963Y-85376358D01*
X162657883Y-85527260D01*
X162657881Y-85527265D01*
X162657844Y-85527378D01*
X162602113Y-85695567D01*
X162602113Y-85695569D01*
X162591500Y-85799440D01*
X153000000Y-85799440D01*
X153000000Y-77722657D01*
X153630892Y-77722657D01*
X153630893Y-77722657D01*
X153630893Y-77722658D01*
X153713828Y-77782914D01*
X153924197Y-77890102D01*
X154055782Y-77932857D01*
X154085252Y-77953007D01*
X154148749Y-77963064D01*
X154148752Y-77963065D01*
X154148751Y-77963065D01*
X154381948Y-78000000D01*
X154618051Y-78000000D01*
X154618052Y-78000000D01*
X154851247Y-77963065D01*
X155075802Y-77890102D01*
X155286163Y-77782918D01*
X155286169Y-77782914D01*
X155336509Y-77746340D01*
X155363247Y-77736799D01*
X155369105Y-77722657D01*
X154500000Y-76853554D01*
X153630892Y-77722657D01*
X153000000Y-77722657D01*
X153000000Y-77386841D01*
X153005021Y-77351914D01*
X153008207Y-77341061D01*
X153045977Y-77282280D01*
X153109531Y-77253251D01*
X153178677Y-77263185D01*
X153181503Y-77264475D01*
X153230320Y-77304388D01*
X153277339Y-77369104D01*
X153277340Y-77369105D01*
X154146446Y-76500000D01*
X154146444Y-76499998D01*
X154853554Y-76499998D01*
X154853554Y-76500001D01*
X155722657Y-77369105D01*
X155722657Y-77369104D01*
X155722658Y-77369105D01*
X155722658Y-77369104D01*
X155736126Y-77363525D01*
X155742343Y-77342355D01*
X155746340Y-77336509D01*
X155754103Y-77325822D01*
X155782914Y-77286169D01*
X155782918Y-77286163D01*
X155890102Y-77075802D01*
X155955196Y-76875465D01*
X162600000Y-76875465D01*
X162600000Y-77124533D01*
X162632506Y-77371452D01*
X162632507Y-77371457D01*
X162632508Y-77371463D01*
X162662426Y-77483121D01*
X162696973Y-77612051D01*
X162792285Y-77842154D01*
X162916808Y-78057833D01*
X162916816Y-78057846D01*
X162916824Y-78057856D01*
X162991400Y-78155045D01*
X163782924Y-77363520D01*
X163844245Y-77330037D01*
X163913936Y-77335021D01*
X163969870Y-77376893D01*
X163973691Y-77382292D01*
X163995112Y-77414351D01*
X163995116Y-77414355D01*
X163995116Y-77414356D01*
X164085643Y-77504883D01*
X164085646Y-77504885D01*
X164085649Y-77504888D01*
X164117685Y-77526293D01*
X164162489Y-77579904D01*
X164171197Y-77649229D01*
X164141043Y-77712257D01*
X164136475Y-77717076D01*
X163344953Y-78508597D01*
X163344953Y-78508598D01*
X163411284Y-78559496D01*
X163442152Y-78583182D01*
X163442155Y-78583184D01*
X163442158Y-78583186D01*
X163657840Y-78707711D01*
X163657851Y-78707716D01*
X163887950Y-78803026D01*
X164128536Y-78867491D01*
X164375466Y-78900000D01*
X164624527Y-78900000D01*
X164624534Y-78900000D01*
X164871463Y-78867491D01*
X165112049Y-78803026D01*
X165342148Y-78707716D01*
X165342159Y-78707711D01*
X165557855Y-78583178D01*
X165655045Y-78508600D01*
X165655045Y-78508597D01*
X165204281Y-78057833D01*
X164863524Y-77717076D01*
X164830039Y-77655753D01*
X164835023Y-77586061D01*
X164876895Y-77530128D01*
X164882270Y-77526323D01*
X164914351Y-77504888D01*
X165004888Y-77414351D01*
X165026295Y-77382312D01*
X165079903Y-77337510D01*
X165149227Y-77328801D01*
X165212256Y-77358955D01*
X165217074Y-77363522D01*
X166008597Y-78155045D01*
X166008599Y-78155045D01*
X166008600Y-78155045D01*
X166083178Y-78057855D01*
X166207711Y-77842159D01*
X166207716Y-77842148D01*
X166303026Y-77612049D01*
X166367491Y-77371463D01*
X166400000Y-77124533D01*
X166400000Y-76875466D01*
X166367491Y-76628536D01*
X166303026Y-76387950D01*
X166300539Y-76381947D01*
X166207713Y-76157844D01*
X166202465Y-76148755D01*
X166083186Y-75942158D01*
X166083180Y-75942150D01*
X166008598Y-75844953D01*
X166008597Y-75844953D01*
X165217076Y-76636474D01*
X165155753Y-76669959D01*
X165086061Y-76664975D01*
X165030128Y-76623103D01*
X165026293Y-76617684D01*
X165004886Y-76585646D01*
X164914356Y-76495116D01*
X164914352Y-76495113D01*
X164914351Y-76495112D01*
X164882310Y-76473703D01*
X164837507Y-76420091D01*
X164828800Y-76350766D01*
X164858955Y-76287739D01*
X164863501Y-76282942D01*
X165655045Y-75491400D01*
X165655044Y-75491399D01*
X165557846Y-75416816D01*
X165557833Y-75416808D01*
X165342154Y-75292285D01*
X165112053Y-75196974D01*
X164991756Y-75164740D01*
X164871463Y-75132508D01*
X164871462Y-75132507D01*
X164871459Y-75132507D01*
X164624535Y-75100000D01*
X164624534Y-75100000D01*
X164375466Y-75100000D01*
X164375465Y-75100000D01*
X164128546Y-75132506D01*
X164128539Y-75132507D01*
X164128536Y-75132508D01*
X164081342Y-75145153D01*
X163887947Y-75196973D01*
X163657846Y-75292284D01*
X163442150Y-75416818D01*
X163442134Y-75416829D01*
X163344953Y-75491398D01*
X163344953Y-75491400D01*
X164136475Y-76282922D01*
X164169960Y-76344245D01*
X164164976Y-76413937D01*
X164123104Y-76469870D01*
X164117688Y-76473703D01*
X164085648Y-76495112D01*
X164085643Y-76495116D01*
X163995116Y-76585643D01*
X163995112Y-76585648D01*
X163973703Y-76617688D01*
X163920090Y-76662491D01*
X163850764Y-76671197D01*
X163787738Y-76641040D01*
X163782922Y-76636475D01*
X162991400Y-75844953D01*
X162991399Y-75844953D01*
X162991398Y-75844953D01*
X162916829Y-75942134D01*
X162916818Y-75942150D01*
X162792284Y-76157846D01*
X162696973Y-76387947D01*
X162632509Y-76628533D01*
X162632506Y-76628546D01*
X162600000Y-76875465D01*
X155955196Y-76875465D01*
X155963065Y-76851247D01*
X156000000Y-76618052D01*
X156000000Y-76381947D01*
X155963065Y-76148752D01*
X155890102Y-75924197D01*
X155782914Y-75713828D01*
X155746338Y-75663487D01*
X155736799Y-75636750D01*
X155722657Y-75630892D01*
X154853554Y-76499998D01*
X154146444Y-76499998D01*
X153277340Y-75630894D01*
X153277339Y-75630894D01*
X153277337Y-75630895D01*
X153234795Y-75689450D01*
X153210200Y-75714759D01*
X153201246Y-75721664D01*
X153136138Y-75747015D01*
X153067660Y-75733141D01*
X153017552Y-75684448D01*
X153017549Y-75684443D01*
X153016026Y-75681746D01*
X153000000Y-75620773D01*
X153000000Y-75277340D01*
X153630893Y-75277340D01*
X154067382Y-75713828D01*
X154500000Y-76146446D01*
X154500001Y-76146446D01*
X155369105Y-75277340D01*
X155369104Y-75277338D01*
X155286174Y-75217087D01*
X155246698Y-75196973D01*
X155075806Y-75109898D01*
X155006399Y-75087346D01*
X154944215Y-75067141D01*
X154914746Y-75046991D01*
X154618057Y-75000000D01*
X154618052Y-75000000D01*
X154381948Y-75000000D01*
X154381943Y-75000000D01*
X154148755Y-75036933D01*
X153924194Y-75109898D01*
X153713825Y-75217086D01*
X153630894Y-75277339D01*
X153630893Y-75277340D01*
X153000000Y-75277340D01*
X153000000Y-52650329D01*
X153005023Y-52615393D01*
X153009427Y-52600395D01*
X153047172Y-52541644D01*
X153048541Y-52540457D01*
X153103420Y-52512977D01*
X153110979Y-52511333D01*
X153137332Y-52508500D01*
X165513074Y-52508500D01*
X165548006Y-52513521D01*
G37*
%TD.AperFunction*%
%TD*%
%TA.AperFunction,Conductor*%
%TO.N,GND*%
G36*
X151674417Y-55700863D02*
G01*
X151674418Y-55700863D01*
X151701924Y-55663005D01*
X151765515Y-55538203D01*
X151813490Y-55487407D01*
X151881311Y-55470612D01*
X151947446Y-55493150D01*
X151990897Y-55547865D01*
X152000000Y-55594498D01*
X152000000Y-75630987D01*
X151980315Y-75698026D01*
X151927511Y-75743781D01*
X151858353Y-75753725D01*
X151794797Y-75724700D01*
X151775682Y-75703873D01*
X151722658Y-75630894D01*
X151722658Y-75630893D01*
X150853554Y-76499999D01*
X150853554Y-76500001D01*
X151722658Y-77369105D01*
X151722659Y-77369104D01*
X151775682Y-77296125D01*
X151831012Y-77253459D01*
X151900625Y-77247480D01*
X151962420Y-77280086D01*
X151996777Y-77340924D01*
X152000000Y-77369010D01*
X152000000Y-96019230D01*
X151980315Y-96086269D01*
X151927511Y-96132024D01*
X151858353Y-96141968D01*
X151832666Y-96135412D01*
X151759201Y-96108010D01*
X151698654Y-96101500D01*
X151698638Y-96101500D01*
X151579097Y-96101500D01*
X151512058Y-96081815D01*
X151491416Y-96065181D01*
X145642884Y-90216649D01*
X145642880Y-90216646D01*
X145477710Y-90106282D01*
X145477701Y-90106277D01*
X145381669Y-90066500D01*
X145294169Y-90030256D01*
X145294161Y-90030254D01*
X145099333Y-89991500D01*
X145099329Y-89991500D01*
X119969096Y-89991500D01*
X119902057Y-89971815D01*
X119881415Y-89955181D01*
X107991954Y-78065720D01*
X107958469Y-78004397D01*
X107959860Y-77945947D01*
X107974134Y-77892680D01*
X107996518Y-77722658D01*
X149630893Y-77722658D01*
X149713828Y-77782914D01*
X149924197Y-77890102D01*
X150148752Y-77963065D01*
X150148751Y-77963065D01*
X150381948Y-78000000D01*
X150618052Y-78000000D01*
X150851247Y-77963065D01*
X151075802Y-77890102D01*
X151286163Y-77782918D01*
X151286169Y-77782914D01*
X151369104Y-77722658D01*
X151369105Y-77722658D01*
X150500000Y-76853554D01*
X149630893Y-77722658D01*
X107996518Y-77722658D01*
X108004871Y-77659213D01*
X108004871Y-77659212D01*
X108008498Y-77631656D01*
X108008500Y-77631644D01*
X108008500Y-77368356D01*
X107974134Y-77107320D01*
X107905990Y-76853003D01*
X107842160Y-76698903D01*
X107805238Y-76609765D01*
X107805230Y-76609749D01*
X107706691Y-76439075D01*
X107673708Y-76381947D01*
X149000000Y-76381947D01*
X149000000Y-76618052D01*
X149036934Y-76851247D01*
X149109897Y-77075802D01*
X149217087Y-77286174D01*
X149277338Y-77369104D01*
X149277340Y-77369105D01*
X150146446Y-76500000D01*
X149277340Y-75630894D01*
X149217084Y-75713830D01*
X149109897Y-75924197D01*
X149036934Y-76148752D01*
X149000000Y-76381947D01*
X107673708Y-76381947D01*
X107673590Y-76381743D01*
X107513312Y-76172863D01*
X107513306Y-76172856D01*
X107327143Y-75986693D01*
X107327136Y-75986687D01*
X107118256Y-75826409D01*
X106890250Y-75694769D01*
X106890234Y-75694761D01*
X106646995Y-75594009D01*
X106392678Y-75525865D01*
X106131653Y-75491501D01*
X106131650Y-75491500D01*
X106131644Y-75491500D01*
X105868356Y-75491500D01*
X105868350Y-75491500D01*
X105868346Y-75491501D01*
X105607321Y-75525865D01*
X105353004Y-75594009D01*
X105109765Y-75694761D01*
X105109749Y-75694769D01*
X104881743Y-75826409D01*
X104672863Y-75986687D01*
X104672856Y-75986693D01*
X104486693Y-76172856D01*
X104486687Y-76172863D01*
X104326409Y-76381743D01*
X104194769Y-76609749D01*
X104194761Y-76609765D01*
X104094009Y-76853004D01*
X104025865Y-77107321D01*
X103991501Y-77368346D01*
X103991500Y-77368362D01*
X103991500Y-77631637D01*
X103991501Y-77631653D01*
X104025865Y-77892678D01*
X104094009Y-78146995D01*
X104194761Y-78390234D01*
X104194769Y-78390250D01*
X104326409Y-78618256D01*
X104486687Y-78827136D01*
X104486693Y-78827143D01*
X104672856Y-79013306D01*
X104672863Y-79013312D01*
X104881743Y-79173590D01*
X105109749Y-79305230D01*
X105109765Y-79305238D01*
X105261451Y-79368068D01*
X105353003Y-79405990D01*
X105607320Y-79474134D01*
X105868356Y-79508500D01*
X105868363Y-79508500D01*
X106131637Y-79508500D01*
X106131644Y-79508500D01*
X106392680Y-79474134D01*
X106445946Y-79459861D01*
X106515793Y-79461522D01*
X106565720Y-79491954D01*
X118716647Y-91642881D01*
X118791647Y-91717881D01*
X118857120Y-91783354D01*
X119022289Y-91893717D01*
X119022295Y-91893720D01*
X119022296Y-91893721D01*
X119205831Y-91969744D01*
X119366656Y-92001734D01*
X119400666Y-92008499D01*
X119400670Y-92008500D01*
X119400671Y-92008500D01*
X144530904Y-92008500D01*
X144597943Y-92028185D01*
X144618585Y-92044819D01*
X149405181Y-96831415D01*
X149438666Y-96892738D01*
X149441500Y-96919096D01*
X149441500Y-98358654D01*
X149448011Y-98419202D01*
X149448011Y-98419204D01*
X149499111Y-98556204D01*
X149586739Y-98673261D01*
X149703796Y-98760889D01*
X149840799Y-98811989D01*
X149868050Y-98814918D01*
X149901345Y-98818499D01*
X149901362Y-98818500D01*
X151698638Y-98818500D01*
X151698654Y-98818499D01*
X151725692Y-98815591D01*
X151759201Y-98811989D01*
X151832665Y-98784587D01*
X151902357Y-98779602D01*
X151963680Y-98813087D01*
X151997166Y-98874409D01*
X152000000Y-98900769D01*
X152000000Y-99800500D01*
X151980315Y-99867539D01*
X151927511Y-99913294D01*
X151876000Y-99924500D01*
X100199500Y-99924500D01*
X100132461Y-99904815D01*
X100086706Y-99852011D01*
X100075500Y-99800500D01*
X100075500Y-92301096D01*
X100095185Y-92234057D01*
X100147989Y-92188302D01*
X100217147Y-92178358D01*
X100280703Y-92207383D01*
X100287181Y-92213415D01*
X103216647Y-95142881D01*
X103357119Y-95283353D01*
X103357120Y-95283354D01*
X103522289Y-95393717D01*
X103522295Y-95393720D01*
X103522296Y-95393721D01*
X103705831Y-95469744D01*
X103900666Y-95508499D01*
X103900670Y-95508500D01*
X103900671Y-95508500D01*
X135030904Y-95508500D01*
X135097943Y-95528185D01*
X135118585Y-95544819D01*
X135472803Y-95899037D01*
X135506288Y-95960360D01*
X135501304Y-96030052D01*
X135459432Y-96085985D01*
X135404520Y-96109191D01*
X135241882Y-96134950D01*
X135038519Y-96201026D01*
X135038516Y-96201027D01*
X134847990Y-96298106D01*
X134674993Y-96423796D01*
X134523796Y-96574993D01*
X134398105Y-96747991D01*
X134395727Y-96751873D01*
X134343914Y-96798748D01*
X134274984Y-96810169D01*
X134210822Y-96782512D01*
X134184273Y-96751873D01*
X134181894Y-96747991D01*
X134181893Y-96747990D01*
X134056206Y-96574996D01*
X133905004Y-96423794D01*
X133732009Y-96298106D01*
X133541483Y-96201027D01*
X133541480Y-96201026D01*
X133338117Y-96134951D01*
X133232516Y-96118225D01*
X133126916Y-96101500D01*
X132913084Y-96101500D01*
X132842684Y-96112650D01*
X132701882Y-96134951D01*
X132498519Y-96201026D01*
X132498516Y-96201027D01*
X132307990Y-96298106D01*
X132134993Y-96423796D01*
X131983796Y-96574993D01*
X131858105Y-96747991D01*
X131855727Y-96751873D01*
X131803914Y-96798748D01*
X131734984Y-96810169D01*
X131670822Y-96782512D01*
X131644273Y-96751873D01*
X131641894Y-96747991D01*
X131641893Y-96747990D01*
X131516206Y-96574996D01*
X131365004Y-96423794D01*
X131192009Y-96298106D01*
X131001483Y-96201027D01*
X131001480Y-96201026D01*
X130798117Y-96134951D01*
X130692516Y-96118225D01*
X130586916Y-96101500D01*
X130373084Y-96101500D01*
X130302684Y-96112650D01*
X130161882Y-96134951D01*
X129958519Y-96201026D01*
X129958516Y-96201027D01*
X129767990Y-96298106D01*
X129594997Y-96423793D01*
X129489818Y-96528972D01*
X129428495Y-96562456D01*
X129358803Y-96557472D01*
X129302870Y-96515600D01*
X129285958Y-96484629D01*
X129240889Y-96363796D01*
X129153261Y-96246739D01*
X129036204Y-96159111D01*
X128899203Y-96108011D01*
X128838654Y-96101500D01*
X128838638Y-96101500D01*
X127041362Y-96101500D01*
X127041345Y-96101500D01*
X126980797Y-96108011D01*
X126980795Y-96108011D01*
X126843795Y-96159111D01*
X126726739Y-96246739D01*
X126639111Y-96363795D01*
X126588011Y-96500795D01*
X126588011Y-96500797D01*
X126581500Y-96561345D01*
X126581500Y-98358654D01*
X126588011Y-98419202D01*
X126588011Y-98419204D01*
X126639111Y-98556204D01*
X126726739Y-98673261D01*
X126843796Y-98760889D01*
X126980799Y-98811989D01*
X127008050Y-98814918D01*
X127041345Y-98818499D01*
X127041362Y-98818500D01*
X128838638Y-98818500D01*
X128838654Y-98818499D01*
X128865692Y-98815591D01*
X128899201Y-98811989D01*
X129036204Y-98760889D01*
X129153261Y-98673261D01*
X129240889Y-98556204D01*
X129285957Y-98435371D01*
X129327827Y-98379442D01*
X129393291Y-98355025D01*
X129461564Y-98369877D01*
X129489818Y-98391028D01*
X129594996Y-98496206D01*
X129767991Y-98621894D01*
X129861438Y-98669507D01*
X129958516Y-98718972D01*
X129958519Y-98718973D01*
X130060200Y-98752010D01*
X130161884Y-98785049D01*
X130373084Y-98818500D01*
X130373085Y-98818500D01*
X130586915Y-98818500D01*
X130586916Y-98818500D01*
X130798116Y-98785049D01*
X131001483Y-98718972D01*
X131192009Y-98621894D01*
X131365004Y-98496206D01*
X131516206Y-98345004D01*
X131641894Y-98172009D01*
X131641896Y-98172004D01*
X131644270Y-98168132D01*
X131696080Y-98121254D01*
X131765009Y-98109829D01*
X131829173Y-98137483D01*
X131855730Y-98168132D01*
X131858103Y-98172005D01*
X131858105Y-98172008D01*
X131858106Y-98172009D01*
X131983794Y-98345004D01*
X132134996Y-98496206D01*
X132307991Y-98621894D01*
X132401438Y-98669507D01*
X132498516Y-98718972D01*
X132498519Y-98718973D01*
X132600200Y-98752010D01*
X132701884Y-98785049D01*
X132913084Y-98818500D01*
X132913085Y-98818500D01*
X133126915Y-98818500D01*
X133126916Y-98818500D01*
X133338116Y-98785049D01*
X133541483Y-98718972D01*
X133732009Y-98621894D01*
X133905004Y-98496206D01*
X134056206Y-98345004D01*
X134181894Y-98172009D01*
X134181896Y-98172004D01*
X134184270Y-98168132D01*
X134236080Y-98121254D01*
X134305009Y-98109829D01*
X134369173Y-98137483D01*
X134395730Y-98168132D01*
X134398103Y-98172005D01*
X134398105Y-98172008D01*
X134398106Y-98172009D01*
X134523794Y-98345004D01*
X134674996Y-98496206D01*
X134847991Y-98621894D01*
X134941438Y-98669507D01*
X135038516Y-98718972D01*
X135038519Y-98718973D01*
X135140200Y-98752010D01*
X135241884Y-98785049D01*
X135453084Y-98818500D01*
X135453085Y-98818500D01*
X135666915Y-98818500D01*
X135666916Y-98818500D01*
X135878116Y-98785049D01*
X136081483Y-98718972D01*
X136272009Y-98621894D01*
X136445004Y-98496206D01*
X136596206Y-98345004D01*
X136721894Y-98172009D01*
X136721896Y-98172004D01*
X136724270Y-98168132D01*
X136776080Y-98121254D01*
X136845009Y-98109829D01*
X136909173Y-98137483D01*
X136935730Y-98168132D01*
X136938103Y-98172005D01*
X136938105Y-98172008D01*
X136938106Y-98172009D01*
X137063794Y-98345004D01*
X137214996Y-98496206D01*
X137387991Y-98621894D01*
X137481438Y-98669507D01*
X137578516Y-98718972D01*
X137578519Y-98718973D01*
X137680200Y-98752010D01*
X137781884Y-98785049D01*
X137993084Y-98818500D01*
X137993085Y-98818500D01*
X138206915Y-98818500D01*
X138206916Y-98818500D01*
X138418116Y-98785049D01*
X138621483Y-98718972D01*
X138812009Y-98621894D01*
X138985004Y-98496206D01*
X139136206Y-98345004D01*
X139261894Y-98172009D01*
X139264283Y-98167319D01*
X139312254Y-98116522D01*
X139380074Y-98099724D01*
X139446210Y-98122258D01*
X139482201Y-98163788D01*
X139482832Y-98163402D01*
X139485164Y-98167207D01*
X139485251Y-98167308D01*
X139485376Y-98167554D01*
X139610272Y-98339459D01*
X139610276Y-98339464D01*
X139760535Y-98489723D01*
X139760540Y-98489727D01*
X139932442Y-98614620D01*
X140121782Y-98711095D01*
X140323871Y-98776757D01*
X140390000Y-98787231D01*
X140390000Y-97893012D01*
X140447007Y-97925925D01*
X140574174Y-97960000D01*
X140705826Y-97960000D01*
X140832993Y-97925925D01*
X140890000Y-97893012D01*
X140890000Y-98787230D01*
X140956126Y-98776757D01*
X140956129Y-98776757D01*
X141158217Y-98711095D01*
X141347557Y-98614620D01*
X141519459Y-98489727D01*
X141519464Y-98489723D01*
X141669723Y-98339464D01*
X141669727Y-98339459D01*
X141794620Y-98167558D01*
X141799514Y-98157954D01*
X141847488Y-98107157D01*
X141915308Y-98090361D01*
X141981444Y-98112897D01*
X142020486Y-98157954D01*
X142025379Y-98167558D01*
X142150272Y-98339459D01*
X142150276Y-98339464D01*
X142300535Y-98489723D01*
X142300540Y-98489727D01*
X142472442Y-98614620D01*
X142661782Y-98711095D01*
X142863871Y-98776757D01*
X142930000Y-98787231D01*
X142930000Y-97893012D01*
X142987007Y-97925925D01*
X143114174Y-97960000D01*
X143245826Y-97960000D01*
X143372993Y-97925925D01*
X143430000Y-97893012D01*
X143430000Y-98787230D01*
X143496126Y-98776757D01*
X143496129Y-98776757D01*
X143698217Y-98711095D01*
X143887557Y-98614620D01*
X144059459Y-98489727D01*
X144059464Y-98489723D01*
X144209723Y-98339464D01*
X144209727Y-98339459D01*
X144334619Y-98167560D01*
X144334738Y-98167327D01*
X144334808Y-98167252D01*
X144337168Y-98163402D01*
X144337976Y-98163897D01*
X144382707Y-98116526D01*
X144450526Y-98099723D01*
X144516663Y-98122254D01*
X144555712Y-98167311D01*
X144558105Y-98172008D01*
X144600002Y-98229674D01*
X144683794Y-98345004D01*
X144834996Y-98496206D01*
X145007991Y-98621894D01*
X145101438Y-98669507D01*
X145198516Y-98718972D01*
X145198519Y-98718973D01*
X145300200Y-98752010D01*
X145401884Y-98785049D01*
X145613084Y-98818500D01*
X145613085Y-98818500D01*
X145826915Y-98818500D01*
X145826916Y-98818500D01*
X146038116Y-98785049D01*
X146241483Y-98718972D01*
X146432009Y-98621894D01*
X146605004Y-98496206D01*
X146756206Y-98345004D01*
X146881894Y-98172009D01*
X146978972Y-97981483D01*
X147045049Y-97778116D01*
X147078500Y-97566916D01*
X147078500Y-97353084D01*
X147045049Y-97141884D01*
X146978972Y-96938517D01*
X146978972Y-96938516D01*
X146923495Y-96829638D01*
X146881894Y-96747991D01*
X146756206Y-96574996D01*
X146605004Y-96423794D01*
X146432009Y-96298106D01*
X146241483Y-96201027D01*
X146241480Y-96201026D01*
X146038117Y-96134951D01*
X145932516Y-96118225D01*
X145826916Y-96101500D01*
X145613084Y-96101500D01*
X145542684Y-96112650D01*
X145401882Y-96134951D01*
X145198519Y-96201026D01*
X145198516Y-96201027D01*
X145007990Y-96298106D01*
X144834993Y-96423796D01*
X144683796Y-96574993D01*
X144558103Y-96747994D01*
X144555709Y-96752693D01*
X144507731Y-96803485D01*
X144439908Y-96820275D01*
X144373775Y-96797732D01*
X144337800Y-96756210D01*
X144337168Y-96756598D01*
X144334829Y-96752781D01*
X144334743Y-96752682D01*
X144334620Y-96752441D01*
X144209727Y-96580540D01*
X144209723Y-96580535D01*
X144059464Y-96430276D01*
X144059459Y-96430272D01*
X143887557Y-96305379D01*
X143698215Y-96208903D01*
X143496124Y-96143241D01*
X143430000Y-96132768D01*
X143430000Y-97026988D01*
X143372993Y-96994075D01*
X143245826Y-96960000D01*
X143114174Y-96960000D01*
X142987007Y-96994075D01*
X142930000Y-97026988D01*
X142930000Y-96132768D01*
X142929999Y-96132768D01*
X142863875Y-96143241D01*
X142661784Y-96208903D01*
X142472442Y-96305379D01*
X142300540Y-96430272D01*
X142300535Y-96430276D01*
X142150276Y-96580535D01*
X142150272Y-96580540D01*
X142025377Y-96752444D01*
X142020484Y-96762048D01*
X141972509Y-96812844D01*
X141904688Y-96829638D01*
X141838553Y-96807100D01*
X141799516Y-96762048D01*
X141794622Y-96752444D01*
X141669727Y-96580540D01*
X141669723Y-96580535D01*
X141519464Y-96430276D01*
X141519459Y-96430272D01*
X141347557Y-96305379D01*
X141158215Y-96208903D01*
X140956124Y-96143241D01*
X140890000Y-96132768D01*
X140890000Y-97026988D01*
X140832993Y-96994075D01*
X140705826Y-96960000D01*
X140574174Y-96960000D01*
X140447007Y-96994075D01*
X140390000Y-97026988D01*
X140390000Y-96132768D01*
X140389999Y-96132768D01*
X140323875Y-96143241D01*
X140121784Y-96208903D01*
X139932442Y-96305379D01*
X139760540Y-96430272D01*
X139760535Y-96430276D01*
X139610276Y-96580535D01*
X139610272Y-96580540D01*
X139485376Y-96752446D01*
X139485374Y-96752448D01*
X139485246Y-96752701D01*
X139485172Y-96752779D01*
X139482832Y-96756598D01*
X139482029Y-96756106D01*
X139437264Y-96803489D01*
X139369441Y-96820274D01*
X139303309Y-96797727D01*
X139264285Y-96752683D01*
X139261895Y-96747992D01*
X139230472Y-96704742D01*
X139136206Y-96574996D01*
X138985004Y-96423794D01*
X138812009Y-96298106D01*
X138650762Y-96215946D01*
X138619376Y-96193142D01*
X136142884Y-93716649D01*
X136142880Y-93716646D01*
X135977710Y-93606282D01*
X135977701Y-93606277D01*
X135794169Y-93530256D01*
X135794161Y-93530254D01*
X135599333Y-93491500D01*
X135599329Y-93491500D01*
X104469096Y-93491500D01*
X104402057Y-93471815D01*
X104381415Y-93455181D01*
X101619819Y-90693585D01*
X101586334Y-90632262D01*
X101583500Y-90605904D01*
X101583500Y-82368905D01*
X104000000Y-82368905D01*
X104000000Y-82631094D01*
X104034220Y-82891009D01*
X104034222Y-82891020D01*
X104102075Y-83144255D01*
X104202404Y-83386471D01*
X104202409Y-83386482D01*
X104333488Y-83613516D01*
X104333494Y-83613524D01*
X104420080Y-83726365D01*
X105435387Y-82711058D01*
X105440889Y-82731591D01*
X105519881Y-82868408D01*
X105631592Y-82980119D01*
X105768409Y-83059111D01*
X105788940Y-83064612D01*
X104773633Y-84079917D01*
X104773633Y-84079918D01*
X104886475Y-84166505D01*
X104886483Y-84166511D01*
X105113517Y-84297590D01*
X105113528Y-84297595D01*
X105355744Y-84397924D01*
X105608979Y-84465777D01*
X105608990Y-84465779D01*
X105868905Y-84499999D01*
X105868920Y-84500000D01*
X106131080Y-84500000D01*
X106131094Y-84499999D01*
X106391009Y-84465779D01*
X106391020Y-84465777D01*
X106644255Y-84397924D01*
X106886471Y-84297595D01*
X106886482Y-84297590D01*
X107113516Y-84166511D01*
X107113534Y-84166499D01*
X107226365Y-84079919D01*
X107226365Y-84079917D01*
X106211059Y-83064612D01*
X106231591Y-83059111D01*
X106368408Y-82980119D01*
X106480119Y-82868408D01*
X106559111Y-82731591D01*
X106564612Y-82711059D01*
X107579917Y-83726365D01*
X107579919Y-83726365D01*
X107666499Y-83613534D01*
X107666511Y-83613516D01*
X107797590Y-83386482D01*
X107797595Y-83386471D01*
X107897924Y-83144255D01*
X107965777Y-82891020D01*
X107965779Y-82891009D01*
X107999999Y-82631094D01*
X108000000Y-82631080D01*
X108000000Y-82368919D01*
X107999999Y-82368905D01*
X107965779Y-82108990D01*
X107965777Y-82108979D01*
X107897924Y-81855744D01*
X107797595Y-81613528D01*
X107797590Y-81613517D01*
X107666511Y-81386483D01*
X107666505Y-81386475D01*
X107579918Y-81273633D01*
X107579917Y-81273633D01*
X106564612Y-82288939D01*
X106559111Y-82268409D01*
X106480119Y-82131592D01*
X106368408Y-82019881D01*
X106231591Y-81940889D01*
X106211057Y-81935387D01*
X107226365Y-80920080D01*
X107113524Y-80833494D01*
X107113516Y-80833488D01*
X106886482Y-80702409D01*
X106886471Y-80702404D01*
X106644255Y-80602075D01*
X106391020Y-80534222D01*
X106391009Y-80534220D01*
X106131094Y-80500000D01*
X105868905Y-80500000D01*
X105608990Y-80534220D01*
X105608979Y-80534222D01*
X105355744Y-80602075D01*
X105113528Y-80702404D01*
X105113517Y-80702409D01*
X104886471Y-80833496D01*
X104773633Y-80920079D01*
X104773633Y-80920080D01*
X105788940Y-81935387D01*
X105768409Y-81940889D01*
X105631592Y-82019881D01*
X105519881Y-82131592D01*
X105440889Y-82268409D01*
X105435387Y-82288940D01*
X104420080Y-81273633D01*
X104420079Y-81273633D01*
X104333496Y-81386471D01*
X104202409Y-81613517D01*
X104202404Y-81613528D01*
X104102075Y-81855744D01*
X104034222Y-82108979D01*
X104034220Y-82108990D01*
X104000000Y-82368905D01*
X101583500Y-82368905D01*
X101583500Y-78394096D01*
X101603185Y-78327057D01*
X101619819Y-78306415D01*
X104648895Y-75277340D01*
X149630894Y-75277340D01*
X150500000Y-76146446D01*
X150500001Y-76146446D01*
X151369105Y-75277340D01*
X151369104Y-75277338D01*
X151286174Y-75217087D01*
X151075802Y-75109897D01*
X150851247Y-75036934D01*
X150851248Y-75036934D01*
X150618052Y-75000000D01*
X150381948Y-75000000D01*
X150148752Y-75036934D01*
X149924197Y-75109897D01*
X149713830Y-75217084D01*
X149630894Y-75277340D01*
X104648895Y-75277340D01*
X104689317Y-75236918D01*
X105381416Y-74544819D01*
X105442739Y-74511334D01*
X105469097Y-74508500D01*
X107548638Y-74508500D01*
X107548654Y-74508499D01*
X107575692Y-74505591D01*
X107609201Y-74501989D01*
X107746204Y-74450889D01*
X107863261Y-74363261D01*
X107950889Y-74246204D01*
X108001989Y-74109201D01*
X108005591Y-74075692D01*
X108008499Y-74048654D01*
X108008500Y-74048637D01*
X108008500Y-70951362D01*
X108008499Y-70951345D01*
X108005157Y-70920270D01*
X108001989Y-70890799D01*
X107950889Y-70753796D01*
X107863261Y-70636739D01*
X107746204Y-70549111D01*
X107609203Y-70498011D01*
X107548654Y-70491500D01*
X107548638Y-70491500D01*
X107132500Y-70491500D01*
X107065461Y-70471815D01*
X107019706Y-70419011D01*
X107008500Y-70367500D01*
X107008500Y-64229095D01*
X107028185Y-64162056D01*
X107044814Y-64141419D01*
X113415210Y-57771022D01*
X113476531Y-57737539D01*
X113546223Y-57742523D01*
X113602156Y-57784395D01*
X113611076Y-57798113D01*
X114627414Y-59613002D01*
X115087451Y-60434496D01*
X115093820Y-60447628D01*
X115106276Y-60477698D01*
X115106282Y-60477710D01*
X115136730Y-60523278D01*
X115141818Y-60531580D01*
X115168611Y-60579424D01*
X115189752Y-60604178D01*
X115198560Y-60615814D01*
X115216644Y-60642878D01*
X115216649Y-60642884D01*
X115255400Y-60681634D01*
X115262011Y-60688785D01*
X115297625Y-60730485D01*
X115323194Y-60750642D01*
X115334096Y-60760330D01*
X115349223Y-60775457D01*
X115357119Y-60783353D01*
X115357120Y-60783354D01*
X115402701Y-60813810D01*
X115410567Y-60819524D01*
X115453631Y-60853475D01*
X115482643Y-60868258D01*
X115495224Y-60875631D01*
X115512122Y-60886922D01*
X115522291Y-60893718D01*
X115522292Y-60893718D01*
X115522296Y-60893721D01*
X115572961Y-60914706D01*
X115581785Y-60918775D01*
X115630634Y-60943667D01*
X115661966Y-60952504D01*
X115675744Y-60957281D01*
X115705831Y-60969744D01*
X115759616Y-60980441D01*
X115769073Y-60982713D01*
X115821831Y-60997594D01*
X115827172Y-60998014D01*
X115854289Y-61000148D01*
X115868731Y-61002146D01*
X115900671Y-61008500D01*
X115955485Y-61008500D01*
X115965217Y-61008882D01*
X116019876Y-61013185D01*
X116052208Y-61009359D01*
X116066780Y-61008500D01*
X140895426Y-61008500D01*
X140906865Y-61009556D01*
X140906904Y-61009113D01*
X140912970Y-61009635D01*
X140912975Y-61009636D01*
X141004209Y-61008523D01*
X141005408Y-61008509D01*
X141006919Y-61008500D01*
X141099326Y-61008500D01*
X141099329Y-61008500D01*
X141099331Y-61008499D01*
X141105392Y-61007902D01*
X141105436Y-61008349D01*
X141105609Y-61008331D01*
X141105560Y-61007885D01*
X141111613Y-61007214D01*
X141111617Y-61007214D01*
X141202080Y-60988069D01*
X141203380Y-60987802D01*
X141294169Y-60969744D01*
X141294174Y-60969742D01*
X141300010Y-60967972D01*
X141300144Y-60968414D01*
X141300294Y-60968367D01*
X141300155Y-60967927D01*
X141305962Y-60966088D01*
X141305968Y-60966085D01*
X141305970Y-60966085D01*
X141390987Y-60929648D01*
X141392221Y-60929128D01*
X141477704Y-60893721D01*
X141477707Y-60893718D01*
X141483074Y-60890850D01*
X141483290Y-60891255D01*
X141483445Y-60891171D01*
X141483224Y-60890769D01*
X141488560Y-60887832D01*
X141488559Y-60887832D01*
X141488565Y-60887830D01*
X141564945Y-60835435D01*
X141565872Y-60834807D01*
X141642881Y-60783353D01*
X141642885Y-60783349D01*
X141647599Y-60779481D01*
X141647887Y-60779832D01*
X141648011Y-60779728D01*
X141647719Y-60779381D01*
X141652376Y-60775462D01*
X141652384Y-60775457D01*
X141717067Y-60709175D01*
X141717980Y-60708253D01*
X141783349Y-60642885D01*
X141783349Y-60642884D01*
X141783353Y-60642881D01*
X141783356Y-60642876D01*
X141787218Y-60638171D01*
X141787566Y-60638456D01*
X141787675Y-60638322D01*
X141787324Y-60638041D01*
X141791127Y-60633288D01*
X141791133Y-60633283D01*
X141841680Y-60555597D01*
X141842301Y-60554656D01*
X141893721Y-60477704D01*
X141893725Y-60477693D01*
X141896592Y-60472330D01*
X141896997Y-60472546D01*
X141897080Y-60472389D01*
X141896673Y-60472178D01*
X141899478Y-60466774D01*
X141899479Y-60466772D01*
X141933849Y-60380846D01*
X141934364Y-60379582D01*
X141969744Y-60294169D01*
X141969745Y-60294164D01*
X141971514Y-60288334D01*
X141971945Y-60288465D01*
X141975204Y-60277456D01*
X143630274Y-56139782D01*
X143672518Y-56085519D01*
X143829630Y-55971371D01*
X143971371Y-55829630D01*
X144089195Y-55667460D01*
X144159515Y-55529447D01*
X144207489Y-55478652D01*
X144275310Y-55461857D01*
X144341445Y-55484394D01*
X144380484Y-55529446D01*
X144450805Y-55667460D01*
X144568629Y-55829630D01*
X144710370Y-55971371D01*
X144872540Y-56089195D01*
X145051146Y-56180199D01*
X145051148Y-56180200D01*
X145146467Y-56211170D01*
X145241788Y-56242142D01*
X145439773Y-56273500D01*
X145439774Y-56273500D01*
X145640226Y-56273500D01*
X145640227Y-56273500D01*
X145838212Y-56242142D01*
X146028854Y-56180199D01*
X146207460Y-56089195D01*
X146369630Y-55971371D01*
X146511371Y-55829630D01*
X146629195Y-55667460D01*
X146699515Y-55529447D01*
X146747489Y-55478652D01*
X146815310Y-55461857D01*
X146881445Y-55484394D01*
X146920484Y-55529446D01*
X146990805Y-55667460D01*
X147108629Y-55829630D01*
X147250370Y-55971371D01*
X147412540Y-56089195D01*
X147591146Y-56180199D01*
X147591148Y-56180200D01*
X147686467Y-56211170D01*
X147781788Y-56242142D01*
X147979773Y-56273500D01*
X147979774Y-56273500D01*
X148180226Y-56273500D01*
X148180227Y-56273500D01*
X148378212Y-56242142D01*
X148568854Y-56180199D01*
X148747460Y-56089195D01*
X148909630Y-55971371D01*
X149051371Y-55829630D01*
X149169195Y-55667460D01*
X149244284Y-55520088D01*
X149292258Y-55469292D01*
X149360079Y-55452497D01*
X149426214Y-55475034D01*
X149465253Y-55520087D01*
X149538075Y-55663006D01*
X149565580Y-55700863D01*
X149565581Y-55700864D01*
X150128871Y-55137574D01*
X150144755Y-55196853D01*
X150211898Y-55313147D01*
X150306853Y-55408102D01*
X150423147Y-55475245D01*
X150482425Y-55491128D01*
X149919134Y-56054417D01*
X149956994Y-56081924D01*
X150134405Y-56172320D01*
X150323777Y-56233852D01*
X150520437Y-56265000D01*
X150719563Y-56265000D01*
X150916222Y-56233852D01*
X151105594Y-56172320D01*
X151283005Y-56081924D01*
X151320863Y-56054418D01*
X151320863Y-56054417D01*
X150757574Y-55491128D01*
X150816853Y-55475245D01*
X150933147Y-55408102D01*
X151028102Y-55313147D01*
X151095245Y-55196853D01*
X151111128Y-55137574D01*
X151674417Y-55700863D01*
G37*
%TD.AperFunction*%
%TA.AperFunction,Conductor*%
G36*
X142714075Y-97267007D02*
G01*
X142680000Y-97394174D01*
X142680000Y-97525826D01*
X142714075Y-97652993D01*
X142746988Y-97710000D01*
X141073012Y-97710000D01*
X141105925Y-97652993D01*
X141140000Y-97525826D01*
X141140000Y-97394174D01*
X141105925Y-97267007D01*
X141073012Y-97210000D01*
X142746988Y-97210000D01*
X142714075Y-97267007D01*
G37*
%TD.AperFunction*%
%TA.AperFunction,Conductor*%
G36*
X151943039Y-47095185D02*
G01*
X151988794Y-47147989D01*
X152000000Y-47199500D01*
X152000000Y-48179428D01*
X151980315Y-48246467D01*
X151927511Y-48292222D01*
X151858353Y-48302166D01*
X151794797Y-48273141D01*
X151788319Y-48267109D01*
X151685006Y-48163796D01*
X151685004Y-48163794D01*
X151512009Y-48038106D01*
X151321483Y-47941027D01*
X151321480Y-47941026D01*
X151118117Y-47874951D01*
X151012516Y-47858225D01*
X150906916Y-47841500D01*
X150693084Y-47841500D01*
X150622684Y-47852650D01*
X150481882Y-47874951D01*
X150278519Y-47941026D01*
X150278516Y-47941027D01*
X150087990Y-48038106D01*
X149914993Y-48163796D01*
X149763796Y-48314993D01*
X149638105Y-48487991D01*
X149635727Y-48491873D01*
X149583914Y-48538748D01*
X149514984Y-48550169D01*
X149450822Y-48522512D01*
X149424273Y-48491873D01*
X149421894Y-48487991D01*
X149421893Y-48487990D01*
X149296206Y-48314996D01*
X149145004Y-48163794D01*
X148972009Y-48038106D01*
X148781483Y-47941027D01*
X148781480Y-47941026D01*
X148578117Y-47874951D01*
X148472516Y-47858225D01*
X148366916Y-47841500D01*
X148153084Y-47841500D01*
X148082684Y-47852650D01*
X147941882Y-47874951D01*
X147738519Y-47941026D01*
X147738516Y-47941027D01*
X147547990Y-48038106D01*
X147374997Y-48163793D01*
X147269818Y-48268972D01*
X147208495Y-48302456D01*
X147138803Y-48297472D01*
X147082870Y-48255600D01*
X147065958Y-48224629D01*
X147020889Y-48103796D01*
X146933261Y-47986739D01*
X146816204Y-47899111D01*
X146679203Y-47848011D01*
X146618654Y-47841500D01*
X146618638Y-47841500D01*
X144821362Y-47841500D01*
X144821345Y-47841500D01*
X144760797Y-47848011D01*
X144760795Y-47848011D01*
X144623795Y-47899111D01*
X144506739Y-47986739D01*
X144419111Y-48103795D01*
X144368011Y-48240795D01*
X144368011Y-48240797D01*
X144361500Y-48301345D01*
X144361500Y-50098654D01*
X144368011Y-50159202D01*
X144368011Y-50159204D01*
X144405764Y-50260421D01*
X144419111Y-50296204D01*
X144506739Y-50413261D01*
X144623796Y-50500889D01*
X144630834Y-50503514D01*
X144686767Y-50545384D01*
X144711184Y-50610848D01*
X144711500Y-50619695D01*
X144711500Y-53976137D01*
X144691815Y-54043176D01*
X144675181Y-54063818D01*
X144568631Y-54170367D01*
X144568631Y-54170368D01*
X144568629Y-54170370D01*
X144518028Y-54240015D01*
X144450805Y-54332539D01*
X144380485Y-54470551D01*
X144332510Y-54521347D01*
X144264689Y-54538142D01*
X144198555Y-54515605D01*
X144159515Y-54470551D01*
X144112092Y-54377478D01*
X144089195Y-54332540D01*
X143971371Y-54170370D01*
X143829630Y-54028629D01*
X143667460Y-53910805D01*
X143488854Y-53819801D01*
X143488851Y-53819799D01*
X143298213Y-53757858D01*
X143153893Y-53735000D01*
X143100227Y-53726500D01*
X142899773Y-53726500D01*
X142846107Y-53735000D01*
X142701786Y-53757858D01*
X142511148Y-53819799D01*
X142511145Y-53819801D01*
X142332539Y-53910805D01*
X142284675Y-53945581D01*
X142170370Y-54028629D01*
X142170368Y-54028631D01*
X142170367Y-54028631D01*
X142028631Y-54170367D01*
X142028631Y-54170368D01*
X142028629Y-54170370D01*
X141978028Y-54240015D01*
X141910805Y-54332539D01*
X141819801Y-54511145D01*
X141819799Y-54511148D01*
X141757858Y-54701786D01*
X141726500Y-54899773D01*
X141726500Y-55100226D01*
X141757856Y-55298205D01*
X141757859Y-55298216D01*
X141760424Y-55306111D01*
X141762414Y-55375952D01*
X141757621Y-55390473D01*
X140348391Y-58913552D01*
X140305217Y-58968486D01*
X140239196Y-58991358D01*
X140233260Y-58991500D01*
X116663786Y-58991500D01*
X116596747Y-58971815D01*
X116555595Y-58928087D01*
X115907639Y-57771024D01*
X115770492Y-57526118D01*
X115754912Y-57458011D01*
X115778628Y-57392289D01*
X115834111Y-57349822D01*
X115903745Y-57344093D01*
X115917003Y-57347603D01*
X115972167Y-57365527D01*
X116189819Y-57400000D01*
X116410181Y-57400000D01*
X116627835Y-57365526D01*
X116837410Y-57297432D01*
X117033760Y-57197386D01*
X117097513Y-57151066D01*
X117097514Y-57151066D01*
X116388584Y-56442138D01*
X116473694Y-56419333D01*
X116576306Y-56360090D01*
X116660090Y-56276306D01*
X116719333Y-56173694D01*
X116742137Y-56088585D01*
X117451066Y-56797514D01*
X117464427Y-56779124D01*
X117519757Y-56736457D01*
X117589370Y-56730478D01*
X117651165Y-56763083D01*
X117665062Y-56779120D01*
X117765657Y-56917576D01*
X117922424Y-57074343D01*
X118101785Y-57204657D01*
X118195114Y-57252210D01*
X118299319Y-57305306D01*
X118299321Y-57305306D01*
X118299324Y-57305308D01*
X118510176Y-57373818D01*
X118729149Y-57408500D01*
X118729150Y-57408500D01*
X118950850Y-57408500D01*
X118950851Y-57408500D01*
X119169824Y-57373818D01*
X119380676Y-57305308D01*
X119578215Y-57204657D01*
X119757576Y-57074343D01*
X119914343Y-56917576D01*
X120009683Y-56786352D01*
X120065012Y-56743688D01*
X120134626Y-56737709D01*
X120196421Y-56770315D01*
X120210314Y-56786349D01*
X120305657Y-56917576D01*
X120462424Y-57074343D01*
X120641785Y-57204657D01*
X120735114Y-57252210D01*
X120839319Y-57305306D01*
X120839321Y-57305306D01*
X120839324Y-57305308D01*
X121050176Y-57373818D01*
X121269149Y-57408500D01*
X121269150Y-57408500D01*
X121490850Y-57408500D01*
X121490851Y-57408500D01*
X121709824Y-57373818D01*
X121920676Y-57305308D01*
X122118215Y-57204657D01*
X122297576Y-57074343D01*
X122454343Y-56917576D01*
X122549683Y-56786352D01*
X122605012Y-56743688D01*
X122674626Y-56737709D01*
X122736421Y-56770315D01*
X122750314Y-56786349D01*
X122845657Y-56917576D01*
X123002424Y-57074343D01*
X123181785Y-57204657D01*
X123275114Y-57252210D01*
X123379319Y-57305306D01*
X123379321Y-57305306D01*
X123379324Y-57305308D01*
X123590176Y-57373818D01*
X123809149Y-57408500D01*
X123809150Y-57408500D01*
X124030850Y-57408500D01*
X124030851Y-57408500D01*
X124249824Y-57373818D01*
X124460676Y-57305308D01*
X124658215Y-57204657D01*
X124837576Y-57074343D01*
X124994343Y-56917576D01*
X125089683Y-56786352D01*
X125145012Y-56743688D01*
X125214626Y-56737709D01*
X125276421Y-56770315D01*
X125290314Y-56786349D01*
X125385657Y-56917576D01*
X125542424Y-57074343D01*
X125721785Y-57204657D01*
X125815114Y-57252210D01*
X125919319Y-57305306D01*
X125919321Y-57305306D01*
X125919324Y-57305308D01*
X126130176Y-57373818D01*
X126349149Y-57408500D01*
X126349150Y-57408500D01*
X126570850Y-57408500D01*
X126570851Y-57408500D01*
X126789824Y-57373818D01*
X127000676Y-57305308D01*
X127198215Y-57204657D01*
X127377576Y-57074343D01*
X127534343Y-56917576D01*
X127629683Y-56786352D01*
X127685012Y-56743688D01*
X127754626Y-56737709D01*
X127816421Y-56770315D01*
X127830314Y-56786349D01*
X127925657Y-56917576D01*
X128082424Y-57074343D01*
X128261785Y-57204657D01*
X128355114Y-57252210D01*
X128459319Y-57305306D01*
X128459321Y-57305306D01*
X128459324Y-57305308D01*
X128670176Y-57373818D01*
X128889149Y-57408500D01*
X128889150Y-57408500D01*
X129110850Y-57408500D01*
X129110851Y-57408500D01*
X129329824Y-57373818D01*
X129540676Y-57305308D01*
X129738215Y-57204657D01*
X129917576Y-57074343D01*
X130074343Y-56917576D01*
X130169683Y-56786352D01*
X130225012Y-56743688D01*
X130294626Y-56737709D01*
X130356421Y-56770315D01*
X130370314Y-56786349D01*
X130465657Y-56917576D01*
X130622424Y-57074343D01*
X130801785Y-57204657D01*
X130895114Y-57252210D01*
X130999319Y-57305306D01*
X130999321Y-57305306D01*
X130999324Y-57305308D01*
X131210176Y-57373818D01*
X131429149Y-57408500D01*
X131429150Y-57408500D01*
X131650850Y-57408500D01*
X131650851Y-57408500D01*
X131869824Y-57373818D01*
X132080676Y-57305308D01*
X132278215Y-57204657D01*
X132457576Y-57074343D01*
X132614343Y-56917576D01*
X132744657Y-56738215D01*
X132845308Y-56540676D01*
X132913818Y-56329824D01*
X132948500Y-56110851D01*
X132948500Y-55889149D01*
X132913818Y-55670176D01*
X132845308Y-55459324D01*
X132845306Y-55459321D01*
X132845306Y-55459319D01*
X132763214Y-55298205D01*
X132744657Y-55261785D01*
X132614343Y-55082424D01*
X132457576Y-54925657D01*
X132278215Y-54795343D01*
X132080680Y-54694693D01*
X131869824Y-54626182D01*
X131650851Y-54591500D01*
X131429149Y-54591500D01*
X131319662Y-54608841D01*
X131210175Y-54626182D01*
X130999319Y-54694693D01*
X130801784Y-54795343D01*
X130728028Y-54848931D01*
X130622424Y-54925657D01*
X130622422Y-54925659D01*
X130622421Y-54925659D01*
X130465658Y-55082422D01*
X130370318Y-55213646D01*
X130314987Y-55256311D01*
X130245374Y-55262290D01*
X130183579Y-55229684D01*
X130169682Y-55213646D01*
X130103332Y-55122324D01*
X130074343Y-55082424D01*
X129917576Y-54925657D01*
X129738215Y-54795343D01*
X129540680Y-54694693D01*
X129329824Y-54626182D01*
X129110851Y-54591500D01*
X128889149Y-54591500D01*
X128779662Y-54608841D01*
X128670175Y-54626182D01*
X128459319Y-54694693D01*
X128261784Y-54795343D01*
X128188028Y-54848931D01*
X128082424Y-54925657D01*
X128082422Y-54925659D01*
X128082421Y-54925659D01*
X127925658Y-55082422D01*
X127830318Y-55213646D01*
X127774987Y-55256311D01*
X127705374Y-55262290D01*
X127643579Y-55229684D01*
X127629682Y-55213646D01*
X127563332Y-55122324D01*
X127534343Y-55082424D01*
X127377576Y-54925657D01*
X127198215Y-54795343D01*
X127000680Y-54694693D01*
X126789824Y-54626182D01*
X126570851Y-54591500D01*
X126349149Y-54591500D01*
X126239662Y-54608841D01*
X126130175Y-54626182D01*
X125919319Y-54694693D01*
X125721784Y-54795343D01*
X125648028Y-54848931D01*
X125542424Y-54925657D01*
X125542422Y-54925659D01*
X125542421Y-54925659D01*
X125385658Y-55082422D01*
X125290318Y-55213646D01*
X125234987Y-55256311D01*
X125165374Y-55262290D01*
X125103579Y-55229684D01*
X125089682Y-55213646D01*
X125023332Y-55122324D01*
X124994343Y-55082424D01*
X124837576Y-54925657D01*
X124658215Y-54795343D01*
X124460680Y-54694693D01*
X124249824Y-54626182D01*
X124030851Y-54591500D01*
X123809149Y-54591500D01*
X123699662Y-54608841D01*
X123590175Y-54626182D01*
X123379319Y-54694693D01*
X123181784Y-54795343D01*
X123108028Y-54848931D01*
X123002424Y-54925657D01*
X123002422Y-54925659D01*
X123002421Y-54925659D01*
X122845658Y-55082422D01*
X122750318Y-55213646D01*
X122694987Y-55256311D01*
X122625374Y-55262290D01*
X122563579Y-55229684D01*
X122549682Y-55213646D01*
X122483332Y-55122324D01*
X122454343Y-55082424D01*
X122380819Y-55008900D01*
X122347334Y-54947577D01*
X122344500Y-54921219D01*
X122344500Y-50163189D01*
X122364185Y-50096150D01*
X122369469Y-50089037D01*
X122369342Y-50088945D01*
X122372203Y-50085006D01*
X122372206Y-50085004D01*
X122497894Y-49912009D01*
X122497896Y-49912004D01*
X122500270Y-49908132D01*
X122552080Y-49861254D01*
X122621009Y-49849829D01*
X122685173Y-49877483D01*
X122711730Y-49908132D01*
X122714103Y-49912005D01*
X122714105Y-49912008D01*
X122714106Y-49912009D01*
X122839794Y-50085004D01*
X122990996Y-50236206D01*
X123163991Y-50361894D01*
X123257438Y-50409507D01*
X123354516Y-50458972D01*
X123354519Y-50458973D01*
X123454629Y-50491500D01*
X123557884Y-50525049D01*
X123769084Y-50558500D01*
X123769085Y-50558500D01*
X123982915Y-50558500D01*
X123982916Y-50558500D01*
X124194116Y-50525049D01*
X124397483Y-50458972D01*
X124588009Y-50361894D01*
X124761004Y-50236206D01*
X124912206Y-50085004D01*
X125037894Y-49912009D01*
X125040283Y-49907319D01*
X125088254Y-49856522D01*
X125156074Y-49839724D01*
X125222210Y-49862258D01*
X125258201Y-49903788D01*
X125258832Y-49903402D01*
X125261164Y-49907207D01*
X125261251Y-49907308D01*
X125261376Y-49907554D01*
X125386272Y-50079459D01*
X125386276Y-50079464D01*
X125536535Y-50229723D01*
X125536540Y-50229727D01*
X125708442Y-50354620D01*
X125897782Y-50451095D01*
X126099871Y-50516757D01*
X126166000Y-50527231D01*
X126166000Y-49633012D01*
X126223007Y-49665925D01*
X126350174Y-49700000D01*
X126481826Y-49700000D01*
X126608993Y-49665925D01*
X126666000Y-49633012D01*
X126666000Y-50527230D01*
X126732126Y-50516757D01*
X126732129Y-50516757D01*
X126934217Y-50451095D01*
X127123557Y-50354620D01*
X127295459Y-50229727D01*
X127295464Y-50229723D01*
X127445723Y-50079464D01*
X127445727Y-50079459D01*
X127570619Y-49907560D01*
X127570738Y-49907327D01*
X127570808Y-49907252D01*
X127573168Y-49903402D01*
X127573976Y-49903897D01*
X127618707Y-49856526D01*
X127686526Y-49839723D01*
X127752663Y-49862254D01*
X127791712Y-49907311D01*
X127794105Y-49912008D01*
X127836002Y-49969674D01*
X127919794Y-50085004D01*
X128070996Y-50236206D01*
X128243991Y-50361894D01*
X128337438Y-50409507D01*
X128434516Y-50458972D01*
X128434519Y-50458973D01*
X128534629Y-50491500D01*
X128637884Y-50525049D01*
X128849084Y-50558500D01*
X128849085Y-50558500D01*
X129062915Y-50558500D01*
X129062916Y-50558500D01*
X129274116Y-50525049D01*
X129477483Y-50458972D01*
X129668009Y-50361894D01*
X129841004Y-50236206D01*
X129992206Y-50085004D01*
X130117894Y-49912009D01*
X130117896Y-49912004D01*
X130120270Y-49908132D01*
X130172080Y-49861254D01*
X130241009Y-49849829D01*
X130305173Y-49877483D01*
X130331730Y-49908132D01*
X130334103Y-49912005D01*
X130334105Y-49912008D01*
X130334106Y-49912009D01*
X130459794Y-50085004D01*
X130610996Y-50236206D01*
X130783991Y-50361894D01*
X130877438Y-50409507D01*
X130974516Y-50458972D01*
X130974519Y-50458973D01*
X131074629Y-50491500D01*
X131177884Y-50525049D01*
X131389084Y-50558500D01*
X131389085Y-50558500D01*
X131602915Y-50558500D01*
X131602916Y-50558500D01*
X131814116Y-50525049D01*
X132017483Y-50458972D01*
X132208009Y-50361894D01*
X132381004Y-50236206D01*
X132532206Y-50085004D01*
X132657894Y-49912009D01*
X132657896Y-49912004D01*
X132660270Y-49908132D01*
X132712080Y-49861254D01*
X132781009Y-49849829D01*
X132845173Y-49877483D01*
X132871730Y-49908132D01*
X132874103Y-49912005D01*
X132874105Y-49912008D01*
X132874106Y-49912009D01*
X132999794Y-50085004D01*
X133150996Y-50236206D01*
X133323991Y-50361894D01*
X133417438Y-50409507D01*
X133514516Y-50458972D01*
X133514519Y-50458973D01*
X133614629Y-50491500D01*
X133717884Y-50525049D01*
X133929084Y-50558500D01*
X133929085Y-50558500D01*
X134142915Y-50558500D01*
X134142916Y-50558500D01*
X134354116Y-50525049D01*
X134557483Y-50458972D01*
X134748009Y-50361894D01*
X134921004Y-50236206D01*
X135072206Y-50085004D01*
X135197894Y-49912009D01*
X135197896Y-49912004D01*
X135200270Y-49908132D01*
X135252080Y-49861254D01*
X135321009Y-49849829D01*
X135385173Y-49877483D01*
X135411730Y-49908132D01*
X135414103Y-49912005D01*
X135414105Y-49912008D01*
X135414106Y-49912009D01*
X135539794Y-50085004D01*
X135690996Y-50236206D01*
X135863991Y-50361894D01*
X135957438Y-50409507D01*
X136054516Y-50458972D01*
X136054519Y-50458973D01*
X136154629Y-50491500D01*
X136257884Y-50525049D01*
X136469084Y-50558500D01*
X136469085Y-50558500D01*
X136682915Y-50558500D01*
X136682916Y-50558500D01*
X136894116Y-50525049D01*
X137097483Y-50458972D01*
X137288009Y-50361894D01*
X137461004Y-50236206D01*
X137612206Y-50085004D01*
X137737894Y-49912009D01*
X137737896Y-49912004D01*
X137740270Y-49908132D01*
X137792080Y-49861254D01*
X137861009Y-49849829D01*
X137925173Y-49877483D01*
X137951730Y-49908132D01*
X137954103Y-49912005D01*
X137954105Y-49912008D01*
X137954106Y-49912009D01*
X138079794Y-50085004D01*
X138230996Y-50236206D01*
X138403991Y-50361894D01*
X138497438Y-50409507D01*
X138594516Y-50458972D01*
X138594519Y-50458973D01*
X138694629Y-50491500D01*
X138797884Y-50525049D01*
X139009084Y-50558500D01*
X139009085Y-50558500D01*
X139222915Y-50558500D01*
X139222916Y-50558500D01*
X139434116Y-50525049D01*
X139637483Y-50458972D01*
X139828009Y-50361894D01*
X140001004Y-50236206D01*
X140152206Y-50085004D01*
X140277894Y-49912009D01*
X140277896Y-49912004D01*
X140280270Y-49908132D01*
X140332080Y-49861254D01*
X140401009Y-49849829D01*
X140465173Y-49877483D01*
X140491730Y-49908132D01*
X140494103Y-49912005D01*
X140494105Y-49912008D01*
X140494106Y-49912009D01*
X140619794Y-50085004D01*
X140770996Y-50236206D01*
X140943991Y-50361894D01*
X141037438Y-50409507D01*
X141134516Y-50458972D01*
X141134519Y-50458973D01*
X141234629Y-50491500D01*
X141337884Y-50525049D01*
X141549084Y-50558500D01*
X141549085Y-50558500D01*
X141762915Y-50558500D01*
X141762916Y-50558500D01*
X141974116Y-50525049D01*
X142177483Y-50458972D01*
X142368009Y-50361894D01*
X142541004Y-50236206D01*
X142692206Y-50085004D01*
X142817894Y-49912009D01*
X142914972Y-49721483D01*
X142981049Y-49518116D01*
X143014500Y-49306916D01*
X143014500Y-49093084D01*
X142981049Y-48881884D01*
X142914972Y-48678517D01*
X142914972Y-48678516D01*
X142865507Y-48581438D01*
X142817894Y-48487991D01*
X142692206Y-48314996D01*
X142541004Y-48163794D01*
X142368009Y-48038106D01*
X142177483Y-47941027D01*
X142177480Y-47941026D01*
X141974117Y-47874951D01*
X141868516Y-47858225D01*
X141762916Y-47841500D01*
X141549084Y-47841500D01*
X141478684Y-47852650D01*
X141337882Y-47874951D01*
X141134519Y-47941026D01*
X141134516Y-47941027D01*
X140943990Y-48038106D01*
X140770993Y-48163796D01*
X140619796Y-48314993D01*
X140494105Y-48487991D01*
X140491727Y-48491873D01*
X140439914Y-48538748D01*
X140370984Y-48550169D01*
X140306822Y-48522512D01*
X140280273Y-48491873D01*
X140277894Y-48487991D01*
X140277893Y-48487990D01*
X140152206Y-48314996D01*
X140001004Y-48163794D01*
X139828009Y-48038106D01*
X139637483Y-47941027D01*
X139637480Y-47941026D01*
X139434117Y-47874951D01*
X139328516Y-47858225D01*
X139222916Y-47841500D01*
X139009084Y-47841500D01*
X138938684Y-47852650D01*
X138797882Y-47874951D01*
X138594519Y-47941026D01*
X138594516Y-47941027D01*
X138403990Y-48038106D01*
X138230993Y-48163796D01*
X138079796Y-48314993D01*
X137954105Y-48487991D01*
X137951727Y-48491873D01*
X137899914Y-48538748D01*
X137830984Y-48550169D01*
X137766822Y-48522512D01*
X137740273Y-48491873D01*
X137737894Y-48487991D01*
X137737893Y-48487990D01*
X137612206Y-48314996D01*
X137461004Y-48163794D01*
X137288009Y-48038106D01*
X137097483Y-47941027D01*
X137097480Y-47941026D01*
X136894117Y-47874951D01*
X136788516Y-47858225D01*
X136682916Y-47841500D01*
X136469084Y-47841500D01*
X136398684Y-47852650D01*
X136257882Y-47874951D01*
X136054519Y-47941026D01*
X136054516Y-47941027D01*
X135863990Y-48038106D01*
X135690993Y-48163796D01*
X135539796Y-48314993D01*
X135414105Y-48487991D01*
X135411727Y-48491873D01*
X135359914Y-48538748D01*
X135290984Y-48550169D01*
X135226822Y-48522512D01*
X135200273Y-48491873D01*
X135197894Y-48487991D01*
X135197893Y-48487990D01*
X135072206Y-48314996D01*
X134921004Y-48163794D01*
X134748009Y-48038106D01*
X134557483Y-47941027D01*
X134557480Y-47941026D01*
X134354117Y-47874951D01*
X134248516Y-47858225D01*
X134142916Y-47841500D01*
X133929084Y-47841500D01*
X133858684Y-47852650D01*
X133717882Y-47874951D01*
X133514519Y-47941026D01*
X133514516Y-47941027D01*
X133323990Y-48038106D01*
X133150993Y-48163796D01*
X132999796Y-48314993D01*
X132874105Y-48487991D01*
X132871727Y-48491873D01*
X132819914Y-48538748D01*
X132750984Y-48550169D01*
X132686822Y-48522512D01*
X132660273Y-48491873D01*
X132657894Y-48487991D01*
X132657893Y-48487990D01*
X132532206Y-48314996D01*
X132381004Y-48163794D01*
X132208009Y-48038106D01*
X132017483Y-47941027D01*
X132017480Y-47941026D01*
X131814117Y-47874951D01*
X131708516Y-47858225D01*
X131602916Y-47841500D01*
X131389084Y-47841500D01*
X131318684Y-47852650D01*
X131177882Y-47874951D01*
X130974519Y-47941026D01*
X130974516Y-47941027D01*
X130783990Y-48038106D01*
X130610993Y-48163796D01*
X130459796Y-48314993D01*
X130334105Y-48487991D01*
X130331727Y-48491873D01*
X130279914Y-48538748D01*
X130210984Y-48550169D01*
X130146822Y-48522512D01*
X130120273Y-48491873D01*
X130117894Y-48487991D01*
X130117893Y-48487990D01*
X129992206Y-48314996D01*
X129841004Y-48163794D01*
X129668009Y-48038106D01*
X129477483Y-47941027D01*
X129477480Y-47941026D01*
X129274117Y-47874951D01*
X129168516Y-47858225D01*
X129062916Y-47841500D01*
X128849084Y-47841500D01*
X128778684Y-47852650D01*
X128637882Y-47874951D01*
X128434519Y-47941026D01*
X128434516Y-47941027D01*
X128243990Y-48038106D01*
X128070993Y-48163796D01*
X127919796Y-48314993D01*
X127794103Y-48487994D01*
X127791709Y-48492693D01*
X127743731Y-48543485D01*
X127675908Y-48560275D01*
X127609775Y-48537732D01*
X127573800Y-48496210D01*
X127573168Y-48496598D01*
X127570829Y-48492781D01*
X127570743Y-48492682D01*
X127570620Y-48492441D01*
X127445727Y-48320540D01*
X127445723Y-48320535D01*
X127295464Y-48170276D01*
X127295459Y-48170272D01*
X127123557Y-48045379D01*
X126934215Y-47948903D01*
X126732124Y-47883241D01*
X126666000Y-47872768D01*
X126666000Y-48766988D01*
X126608993Y-48734075D01*
X126481826Y-48700000D01*
X126350174Y-48700000D01*
X126223007Y-48734075D01*
X126166000Y-48766988D01*
X126166000Y-47872768D01*
X126165999Y-47872768D01*
X126099875Y-47883241D01*
X125897784Y-47948903D01*
X125708442Y-48045379D01*
X125536540Y-48170272D01*
X125536535Y-48170276D01*
X125386276Y-48320535D01*
X125386272Y-48320540D01*
X125261376Y-48492446D01*
X125261374Y-48492448D01*
X125261246Y-48492701D01*
X125261172Y-48492779D01*
X125258832Y-48496598D01*
X125258029Y-48496106D01*
X125213264Y-48543489D01*
X125145441Y-48560274D01*
X125079309Y-48537727D01*
X125040285Y-48492683D01*
X125037895Y-48487992D01*
X125006472Y-48444742D01*
X124912206Y-48314996D01*
X124761004Y-48163794D01*
X124588009Y-48038106D01*
X124397483Y-47941027D01*
X124397480Y-47941026D01*
X124194117Y-47874951D01*
X124088516Y-47858225D01*
X123982916Y-47841500D01*
X123769084Y-47841500D01*
X123698684Y-47852650D01*
X123557882Y-47874951D01*
X123354519Y-47941026D01*
X123354516Y-47941027D01*
X123163990Y-48038106D01*
X122990993Y-48163796D01*
X122839796Y-48314993D01*
X122714105Y-48487991D01*
X122711727Y-48491873D01*
X122659914Y-48538748D01*
X122590984Y-48550169D01*
X122526822Y-48522512D01*
X122500273Y-48491873D01*
X122497894Y-48487991D01*
X122497893Y-48487990D01*
X122372206Y-48314996D01*
X122221004Y-48163794D01*
X122048009Y-48038106D01*
X121857483Y-47941027D01*
X121857480Y-47941026D01*
X121654117Y-47874951D01*
X121548516Y-47858225D01*
X121442916Y-47841500D01*
X121229084Y-47841500D01*
X121158684Y-47852650D01*
X121017882Y-47874951D01*
X120814519Y-47941026D01*
X120814516Y-47941027D01*
X120623990Y-48038106D01*
X120450997Y-48163793D01*
X120345818Y-48268972D01*
X120284495Y-48302456D01*
X120214803Y-48297472D01*
X120158870Y-48255600D01*
X120141958Y-48224629D01*
X120096889Y-48103796D01*
X120009261Y-47986739D01*
X119892204Y-47899111D01*
X119755203Y-47848011D01*
X119694654Y-47841500D01*
X119694638Y-47841500D01*
X117897362Y-47841500D01*
X117897345Y-47841500D01*
X117836797Y-47848011D01*
X117836795Y-47848011D01*
X117699795Y-47899111D01*
X117582739Y-47986739D01*
X117495111Y-48103795D01*
X117444011Y-48240795D01*
X117444011Y-48240797D01*
X117437500Y-48301345D01*
X117437500Y-50098654D01*
X117444011Y-50159202D01*
X117444011Y-50159204D01*
X117481764Y-50260421D01*
X117495111Y-50296204D01*
X117582739Y-50413261D01*
X117699796Y-50500889D01*
X117706834Y-50503514D01*
X117762767Y-50545384D01*
X117787184Y-50610848D01*
X117787500Y-50619695D01*
X117787500Y-55012070D01*
X117767815Y-55079109D01*
X117763827Y-55084941D01*
X117736668Y-55122324D01*
X117665064Y-55220877D01*
X117609733Y-55263542D01*
X117540120Y-55269521D01*
X117478325Y-55236915D01*
X117464427Y-55220875D01*
X117451066Y-55202485D01*
X117451065Y-55202485D01*
X116742137Y-55911413D01*
X116719333Y-55826306D01*
X116660090Y-55723694D01*
X116576306Y-55639910D01*
X116473694Y-55580667D01*
X116388583Y-55557861D01*
X117097513Y-54848932D01*
X117033756Y-54802611D01*
X116837410Y-54702567D01*
X116627835Y-54634473D01*
X116410181Y-54600000D01*
X116189819Y-54600000D01*
X115972164Y-54634473D01*
X115762589Y-54702567D01*
X115566233Y-54802616D01*
X115502485Y-54848931D01*
X115502485Y-54848932D01*
X116211414Y-55557861D01*
X116126306Y-55580667D01*
X116023694Y-55639910D01*
X115939910Y-55723694D01*
X115880667Y-55826306D01*
X115857861Y-55911415D01*
X115148932Y-55202485D01*
X115148930Y-55202485D01*
X115135570Y-55220875D01*
X115080241Y-55263541D01*
X115010627Y-55269520D01*
X114948832Y-55236915D01*
X114934935Y-55220877D01*
X114834343Y-55082424D01*
X114677576Y-54925657D01*
X114498215Y-54795343D01*
X114300680Y-54694693D01*
X114089824Y-54626182D01*
X113870851Y-54591500D01*
X113649149Y-54591500D01*
X113539662Y-54608841D01*
X113430175Y-54626182D01*
X113219319Y-54694693D01*
X113021784Y-54795343D01*
X112948028Y-54848931D01*
X112842424Y-54925657D01*
X112842422Y-54925659D01*
X112842421Y-54925659D01*
X112685659Y-55082421D01*
X112685659Y-55082422D01*
X112685657Y-55082424D01*
X112656668Y-55122324D01*
X112555343Y-55261784D01*
X112454693Y-55459319D01*
X112386182Y-55670175D01*
X112351500Y-55889149D01*
X112351500Y-55930904D01*
X112331815Y-55997943D01*
X112315181Y-56018585D01*
X105357119Y-62976647D01*
X105286882Y-63046884D01*
X105216645Y-63117120D01*
X105106282Y-63282289D01*
X105106277Y-63282298D01*
X105030256Y-63465830D01*
X105030254Y-63465838D01*
X104991500Y-63660666D01*
X104991500Y-70367500D01*
X104971815Y-70434539D01*
X104919011Y-70480294D01*
X104867500Y-70491500D01*
X104451345Y-70491500D01*
X104390797Y-70498011D01*
X104390795Y-70498011D01*
X104253795Y-70549111D01*
X104136739Y-70636739D01*
X104049111Y-70753795D01*
X103998011Y-70890795D01*
X103998011Y-70890797D01*
X103991500Y-70951345D01*
X103991500Y-73030903D01*
X103971815Y-73097942D01*
X103955181Y-73118584D01*
X100287181Y-76786584D01*
X100225858Y-76820069D01*
X100156166Y-76815085D01*
X100100233Y-76773213D01*
X100075816Y-76707749D01*
X100075500Y-76698903D01*
X100075500Y-47199500D01*
X100095185Y-47132461D01*
X100147989Y-47086706D01*
X100199500Y-47075500D01*
X151876000Y-47075500D01*
X151943039Y-47095185D01*
G37*
%TD.AperFunction*%
%TA.AperFunction,Conductor*%
G36*
X149609173Y-49877483D02*
G01*
X149635730Y-49908132D01*
X149638103Y-49912005D01*
X149638105Y-49912008D01*
X149638106Y-49912009D01*
X149763794Y-50085004D01*
X149914996Y-50236206D01*
X150087991Y-50361894D01*
X150181438Y-50409507D01*
X150278516Y-50458972D01*
X150278519Y-50458973D01*
X150378629Y-50491500D01*
X150481884Y-50525049D01*
X150693084Y-50558500D01*
X150693085Y-50558500D01*
X150697896Y-50559262D01*
X150697596Y-50561152D01*
X150755287Y-50583134D01*
X150767960Y-50594194D01*
X151963681Y-51789915D01*
X151997166Y-51851238D01*
X152000000Y-51877596D01*
X152000000Y-54405501D01*
X151980315Y-54472540D01*
X151927511Y-54518295D01*
X151858353Y-54528239D01*
X151794797Y-54499214D01*
X151765515Y-54461796D01*
X151701924Y-54336994D01*
X151674417Y-54299135D01*
X151674417Y-54299134D01*
X151111128Y-54862424D01*
X151095245Y-54803147D01*
X151028102Y-54686853D01*
X150933147Y-54591898D01*
X150816853Y-54524755D01*
X150757574Y-54508871D01*
X151320864Y-53945581D01*
X151320863Y-53945580D01*
X151283008Y-53918077D01*
X151105594Y-53827679D01*
X150916222Y-53766147D01*
X150719563Y-53735000D01*
X150520437Y-53735000D01*
X150323777Y-53766147D01*
X150134405Y-53827679D01*
X149956990Y-53918077D01*
X149919135Y-53945580D01*
X149919135Y-53945581D01*
X150482425Y-54508871D01*
X150423147Y-54524755D01*
X150306853Y-54591898D01*
X150211898Y-54686853D01*
X150144755Y-54803147D01*
X150128871Y-54862425D01*
X149565581Y-54299135D01*
X149565580Y-54299135D01*
X149538075Y-54336993D01*
X149502984Y-54405863D01*
X149455010Y-54456658D01*
X149387189Y-54473453D01*
X149321054Y-54450915D01*
X149277603Y-54396200D01*
X149268500Y-54349567D01*
X149268500Y-50163189D01*
X149288185Y-50096150D01*
X149293469Y-50089037D01*
X149293342Y-50088945D01*
X149296203Y-50085006D01*
X149296206Y-50085004D01*
X149421894Y-49912009D01*
X149421896Y-49912004D01*
X149424270Y-49908132D01*
X149476080Y-49861254D01*
X149545009Y-49849829D01*
X149609173Y-49877483D01*
G37*
%TD.AperFunction*%
%TD*%
M02*
