M48
; DRILL file KiCad 10.0.5-1.fc44 date 2026-09-07T20:43:14
; FORMAT={-:-/ absolute / metric / decimal}
; #@! TF.CreationDate,2026-09-07T20:43:14-03:00
; #@! TF.GenerationSoftware,Kicad,Pcbnew,10.0.5-1.fc44
; #@! TF.FileFunction,Plated,1,2,PTH
FMAT,2
METRIC
; #@! TA.AperFunction,Plated,PTH,ComponentDrill
T1C0.900
; #@! TA.AperFunction,Plated,PTH,ComponentDrill
T2C1.000
; #@! TA.AperFunction,Plated,PTH,ComponentDrill
T3C1.020
; #@! TA.AperFunction,Plated,PTH,ComponentDrill
T4C1.200
; #@! TA.AperFunction,Plated,PTH,ComponentDrill
T5C1.300
%
G90
G05
T1
X113.76Y-56.0
X116.3Y-56.0
X118.84Y-56.0
X121.38Y-56.0
X123.92Y-56.0
X126.46Y-56.0
X129.0Y-56.0
X131.54Y-56.0
T2
X118.796Y-49.2
X121.336Y-49.2
X123.876Y-49.2
X126.416Y-49.2
X127.94Y-97.46
X128.956Y-49.2
X130.48Y-97.46
X131.496Y-49.2
X133.02Y-97.46
X134.036Y-49.2
X135.56Y-97.46
X136.576Y-49.2
X138.1Y-97.46
X139.116Y-49.2
X140.64Y-97.46
X141.656Y-49.2
X143.18Y-97.46
X145.72Y-49.2
X145.72Y-97.46
X148.26Y-49.2
X150.8Y-49.2
X150.8Y-97.46
X153.34Y-49.2
X153.34Y-97.46
X155.88Y-49.2
X155.88Y-97.46
X158.42Y-49.2
X158.42Y-97.46
X160.96Y-49.2
X160.96Y-97.46
X163.5Y-49.2
X163.5Y-97.46
T3
X143.0Y-55.0
X145.54Y-55.0
X148.08Y-55.0
X150.62Y-55.0
T4
X106.0Y-72.5
X106.0Y-77.5
X106.0Y-82.5
T5
X164.5Y-69.0
X164.5Y-74.0
X164.5Y-79.0
X164.5Y-86.75
X164.5Y-91.75
M30
